<svg width="331" height="151" viewBox="0 0 331 151" fill="none" xmlns="http://www.w3.org/2000/svg">
<path d="M7.76672 30.584L8.64672 22.4H22.5507C25.0147 22.4 27.0094 23.1627 28.5347 24.688C30.0601 26.1547 30.8227 28.12 30.8227 30.584V58.128C30.8227 60.592 29.8841 62.5867 28.0067 64.112C26.1881 65.5787 24.0467 66.312 21.5827 66.312H17.4467V84H9.08672V30.584H7.76672ZM22.0227 30.584H17.4467V58.128H22.0227C22.3161 58.128 22.4627 57.9813 22.4627 57.688V31.024C22.4627 30.7307 22.3161 30.584 22.0227 30.584ZM35.574 84V30.584H33.462L34.342 22.4H43.934V43.432L46.134 40H48.51C51.2087 40 53.35 40.7627 54.934 42.288C56.5767 43.8133 57.398 45.7787 57.398 48.184V75.816H59.51L58.63 84H49.038V48.624C49.038 48.3307 48.8914 48.184 48.598 48.184H43.934V84H35.574ZM75.4167 48.272C75.4167 47.9787 75.2701 47.832 74.9767 47.832H69.6967C69.4034 47.832 69.2567 47.9787 69.2567 48.272V75.728C69.2567 76.0213 69.4034 76.168 69.6967 76.168H74.9767C75.2701 76.168 75.4167 76.0507 75.4167 75.816V48.272ZM60.8967 76.168V47.832C60.8967 45.368 61.6594 43.4027 63.1847 41.936C64.7101 40.4107 66.7047 39.648 69.1687 39.648H75.5047C77.9687 39.648 79.9634 40.4107 81.4887 41.936C83.0141 43.4027 83.7767 45.368 83.7767 47.832V76.168C83.7767 78.632 83.0141 80.6267 81.4887 82.152C79.9634 83.6187 77.9687 84.352 75.5047 84.352H69.1687C66.7047 84.352 64.7101 83.6187 63.1847 82.152C61.6594 80.6267 60.8967 78.632 60.8967 76.168ZM103.042 75.816V84H97.9378C95.4738 84 93.4792 83.2667 91.9538 81.8C90.4285 80.2747 89.6658 78.28 89.6658 75.816V48.184H85.9698L86.6738 40H89.6658V30.584H87.4658L88.1698 22.4H98.0258V40H103.042L102.338 48.184H98.0258V75.816H103.042ZM119.76 48.272C119.76 47.9787 119.614 47.832 119.32 47.832H114.04C113.747 47.832 113.6 47.9787 113.6 48.272V75.728C113.6 76.0213 113.747 76.168 114.04 76.168H119.32C119.614 76.168 119.76 76.0507 119.76 75.816V48.272ZM105.24 76.168V47.832C105.24 45.368 106.003 43.4027 107.528 41.936C109.054 40.4107 111.048 39.648 113.512 39.648H119.848C122.312 39.648 124.307 40.4107 125.832 41.936C127.358 43.4027 128.12 45.368 128.12 47.832V76.168C128.12 78.632 127.358 80.6267 125.832 82.152C124.307 83.6187 122.312 84.352 119.848 84.352H113.512C111.048 84.352 109.054 83.6187 107.528 82.152C106.003 80.6267 105.24 78.632 105.24 76.168ZM131.623 30.584V22.4H155.823V30.584H147.903V84H139.543V30.584H131.623ZM167.301 28.296L168.181 36.48H159.821V28.296H167.301ZM168.181 40V84H159.821V48.184H158.501L159.381 40H168.181ZM195.156 84H186.796V48.624C186.796 48.3307 186.649 48.184 186.356 48.184H181.692V84H173.332V48.184H171.22L172.1 40H181.692V43.432L183.892 40H186.268C188.204 40 189.876 40.4107 191.284 41.232C192.692 42.0533 193.719 43.168 194.364 44.576L197.356 40H199.732C202.431 40 204.572 40.7627 206.156 42.288C207.799 43.8133 208.62 45.7787 208.62 48.184V75.816H210.732L209.852 84H200.26V48.624C200.26 48.3307 200.113 48.184 199.82 48.184H195.156V84ZM213.35 76.168V47.832C213.35 45.368 214.113 43.4027 215.638 41.936C217.163 40.4107 219.158 39.648 221.622 39.648H227.078C229.542 39.648 231.537 40.4107 233.062 41.936C234.587 43.4027 235.35 45.368 235.35 47.832V58.656H226.99V48.272C226.99 47.9787 226.843 47.832 226.55 47.832H222.15C221.857 47.832 221.71 47.9787 221.71 48.272V58.656H235.35V66.84H221.71V75.728C221.71 76.0213 221.857 76.168 222.15 76.168H226.55C226.843 76.168 226.99 76.0507 226.99 75.816V70.976H235.35V76.168C235.35 78.632 234.587 80.6267 233.062 82.152C231.537 83.6187 229.542 84.352 227.078 84.352H221.622C219.158 84.352 217.163 83.6187 215.638 82.152C214.113 80.6267 213.35 78.632 213.35 76.168Z" fill="black"/>
<path d="M7.76672 30.584L6.77245 30.4771L6.65343 31.584H7.76672V30.584ZM8.64672 22.4V21.4H7.74848L7.65245 22.2931L8.64672 22.4ZM28.5347 24.688L27.8276 25.3951L27.8345 25.402L27.8416 25.4088L28.5347 24.688ZM28.0067 64.112L28.6345 64.8904L28.6373 64.8881L28.0067 64.112ZM17.4467 66.312V65.312H16.4467V66.312H17.4467ZM17.4467 84V85H18.4467V84H17.4467ZM9.08672 84H8.08672V85H9.08672V84ZM9.08672 30.584H10.0867V29.584H9.08672V30.584ZM17.4467 30.584V29.584H16.4467V30.584H17.4467ZM17.4467 58.128H16.4467V59.128H17.4467V58.128ZM8.76099 30.6909L9.64099 22.5069L7.65245 22.2931L6.77245 30.4771L8.76099 30.6909ZM8.64672 23.4H22.5507V21.4H8.64672V23.4ZM22.5507 23.4C24.7905 23.4 26.5169 24.0844 27.8276 25.3951L29.2418 23.9809C27.5018 22.2409 25.2389 21.4 22.5507 21.4V23.4ZM27.8416 25.4088C29.1384 26.6557 29.8227 28.3434 29.8227 30.584H31.8227C31.8227 27.8966 30.9817 25.6536 29.2278 23.9672L27.8416 25.4088ZM29.8227 30.584V58.128H31.8227V30.584H29.8227ZM29.8227 58.128C29.8227 60.2974 29.0147 62.0045 27.3761 63.3359L28.6373 64.8881C30.7534 63.1688 31.8227 60.8866 31.8227 58.128H29.8227ZM27.379 63.3336C25.7483 64.6486 23.8317 65.312 21.5827 65.312V67.312C24.2617 67.312 26.6278 66.5087 28.6345 64.8904L27.379 63.3336ZM21.5827 65.312H17.4467V67.312H21.5827V65.312ZM16.4467 66.312V84H18.4467V66.312H16.4467ZM17.4467 83H9.08672V85H17.4467V83ZM10.0867 84V30.584H8.08672V84H10.0867ZM9.08672 29.584H7.76672V31.584H9.08672V29.584ZM22.0227 29.584H17.4467V31.584H22.0227V29.584ZM16.4467 30.584V58.128H18.4467V30.584H16.4467ZM17.4467 59.128H22.0227V57.128H17.4467V59.128ZM22.0227 59.128C22.3235 59.128 22.7328 59.0521 23.0598 58.7251C23.3868 58.3981 23.4627 57.9888 23.4627 57.688H21.4627C21.4627 57.6805 21.4653 57.4912 21.6456 57.3109C21.826 57.1305 22.0152 57.128 22.0227 57.128V59.128ZM23.4627 57.688V31.024H21.4627V57.688H23.4627ZM23.4627 31.024C23.4627 30.7232 23.3868 30.3139 23.0598 29.9869C22.7328 29.6599 22.3235 29.584 22.0227 29.584V31.584C22.0152 31.584 21.826 31.5814 21.6456 31.4011C21.4653 31.2208 21.4627 31.0315 21.4627 31.024H23.4627ZM35.574 84H34.574V85H35.574V84ZM35.574 30.584H36.574V29.584H35.574V30.584ZM33.462 30.584L32.4678 30.4771L32.3487 31.584H33.462V30.584ZM34.342 22.4V21.4H33.4438L33.3478 22.2931L34.342 22.4ZM43.934 22.4H44.934V21.4H43.934V22.4ZM43.934 43.432H42.934V46.845L44.7759 43.9717L43.934 43.432ZM46.134 40V39H45.5872L45.2922 39.4603L46.134 40ZM54.934 42.288L54.2404 43.0083L54.2469 43.0146L54.2536 43.0208L54.934 42.288ZM57.398 75.816H56.398V76.816H57.398V75.816ZM59.51 75.816L60.5043 75.9229L60.6233 74.816H59.51V75.816ZM58.63 84V85H59.5283L59.6243 84.1069L58.63 84ZM49.038 84H48.038V85H49.038V84ZM43.934 48.184V47.184H42.934V48.184H43.934ZM43.934 84V85H44.934V84H43.934ZM36.574 84V30.584H34.574V84H36.574ZM35.574 29.584H33.462V31.584H35.574V29.584ZM34.4563 30.6909L35.3363 22.5069L33.3478 22.2931L32.4678 30.4771L34.4563 30.6909ZM34.342 23.4H43.934V21.4H34.342V23.4ZM42.934 22.4V43.432H44.934V22.4H42.934ZM44.7759 43.9717L46.9759 40.5397L45.2922 39.4603L43.0922 42.8923L44.7759 43.9717ZM46.134 41H48.51V39H46.134V41ZM48.51 41C51.0121 41 52.8831 41.7013 54.2404 43.0083L55.6277 41.5677C53.8169 39.824 51.4053 39 48.51 39V41ZM54.2536 43.0208C55.6764 44.342 56.398 46.034 56.398 48.184H58.398C58.398 45.5233 57.477 43.2847 55.6145 41.5552L54.2536 43.0208ZM56.398 48.184V75.816H58.398V48.184H56.398ZM57.398 76.816H59.51V74.816H57.398V76.816ZM58.5158 75.7091L57.6358 83.8931L59.6243 84.1069L60.5043 75.9229L58.5158 75.7091ZM58.63 83H49.038V85H58.63V83ZM50.038 84V48.624H48.038V84H50.038ZM50.038 48.624C50.038 48.3232 49.9622 47.9139 49.6351 47.5869C49.3081 47.2599 48.8988 47.184 48.598 47.184V49.184C48.5906 49.184 48.4013 49.1815 48.2209 49.0011C48.0406 48.8208 48.038 48.6315 48.038 48.624H50.038ZM48.598 47.184H43.934V49.184H48.598V47.184ZM42.934 48.184V84H44.934V48.184H42.934ZM43.934 83H35.574V85H43.934V83ZM63.1847 41.936L63.8778 42.6568L63.8849 42.65L63.8918 42.6431L63.1847 41.936ZM81.4887 41.936L80.7816 42.6431L80.7885 42.65L80.7956 42.6568L81.4887 41.936ZM81.4887 82.152L82.1818 82.8728L82.1889 82.866L82.1958 82.8591L81.4887 82.152ZM63.1847 82.152L62.4776 82.8591L62.4845 82.866L62.4916 82.8728L63.1847 82.152ZM76.4167 48.272C76.4167 47.9712 76.3408 47.5619 76.0138 47.2349C75.6868 46.9079 75.2775 46.832 74.9767 46.832V48.832C74.9692 48.832 74.78 48.8295 74.5996 48.6491C74.4193 48.4688 74.4167 48.2795 74.4167 48.272H76.4167ZM74.9767 46.832H69.6967V48.832H74.9767V46.832ZM69.6967 46.832C69.3959 46.832 68.9866 46.9079 68.6596 47.2349C68.3326 47.5619 68.2567 47.9712 68.2567 48.272H70.2567C70.2567 48.2795 70.2542 48.4688 70.0738 48.6491C69.8935 48.8295 69.7042 48.832 69.6967 48.832V46.832ZM68.2567 48.272V75.728H70.2567V48.272H68.2567ZM68.2567 75.728C68.2567 76.0288 68.3326 76.4381 68.6596 76.7651C68.9866 77.0921 69.3959 77.168 69.6967 77.168V75.168C69.7042 75.168 69.8935 75.1705 70.0738 75.3509C70.2542 75.5312 70.2567 75.7205 70.2567 75.728H68.2567ZM69.6967 77.168H74.9767V75.168H69.6967V77.168ZM74.9767 77.168C75.2302 77.168 75.6054 77.1217 75.9314 76.8609C76.3 76.566 76.4167 76.154 76.4167 75.816H74.4167C74.4167 75.7722 74.4234 75.6879 74.4661 75.5854C74.5114 75.4768 74.5855 75.3764 74.682 75.2991C74.8614 75.1557 75.0165 75.168 74.9767 75.168V77.168ZM76.4167 75.816V48.272H74.4167V75.816H76.4167ZM61.8967 76.168V47.832H59.8967V76.168H61.8967ZM61.8967 47.832C61.8967 45.5914 62.5811 43.9037 63.8778 42.6568L62.4916 41.2152C60.7377 42.9016 59.8967 45.1446 59.8967 47.832H61.8967ZM63.8918 42.6431C65.2025 41.3324 66.9289 40.648 69.1687 40.648V38.648C66.4805 38.648 64.2176 39.4889 62.4776 41.2289L63.8918 42.6431ZM69.1687 40.648H75.5047V38.648H69.1687V40.648ZM75.5047 40.648C77.7445 40.648 79.4709 41.3324 80.7816 42.6431L82.1958 41.2289C80.4558 39.4889 78.1929 38.648 75.5047 38.648V40.648ZM80.7956 42.6568C82.0924 43.9037 82.7767 45.5914 82.7767 47.832H84.7767C84.7767 45.1446 83.9357 42.9016 82.1818 41.2152L80.7956 42.6568ZM82.7767 47.832V76.168H84.7767V47.832H82.7767ZM82.7767 76.168C82.7767 78.4078 82.0923 80.1342 80.7816 81.4449L82.1958 82.8591C83.9358 81.1191 84.7767 78.8562 84.7767 76.168H82.7767ZM80.7956 81.4312C79.487 82.6894 77.7559 83.352 75.5047 83.352V85.352C78.1815 85.352 80.4397 84.5479 82.1818 82.8728L80.7956 81.4312ZM75.5047 83.352H69.1687V85.352H75.5047V83.352ZM69.1687 83.352C66.9175 83.352 65.1864 82.6894 63.8778 81.4312L62.4916 82.8728C64.2337 84.5479 66.4919 85.352 69.1687 85.352V83.352ZM63.8918 81.4449C62.5812 80.1342 61.8967 78.4078 61.8967 76.168H59.8967C59.8967 78.8562 60.7376 81.1191 62.4776 82.8591L63.8918 81.4449ZM103.042 75.816H104.042V74.816H103.042V75.816ZM103.042 84V85H104.042V84H103.042ZM91.9538 81.8L91.2467 82.5071L91.2537 82.514L91.2607 82.5208L91.9538 81.8ZM89.6658 48.184H90.6658V47.184H89.6658V48.184ZM85.9698 48.184L84.9735 48.0983L84.8801 49.184H85.9698V48.184ZM86.6738 40V39H85.7562L85.6775 39.9143L86.6738 40ZM89.6658 40V41H90.6658V40H89.6658ZM89.6658 30.584H90.6658V29.584H89.6658V30.584ZM87.4658 30.584L86.4695 30.4983L86.3761 31.584H87.4658V30.584ZM88.1698 22.4V21.4H87.2522L87.1735 22.3143L88.1698 22.4ZM98.0258 22.4H99.0258V21.4H98.0258V22.4ZM98.0258 40H97.0258V41H98.0258V40ZM103.042 40L104.038 40.0857L104.132 39H103.042V40ZM102.338 48.184V49.184H103.256L103.334 48.2697L102.338 48.184ZM98.0258 48.184V47.184H97.0258V48.184H98.0258ZM98.0258 75.816H97.0258V76.816H98.0258V75.816ZM102.042 75.816V84H104.042V75.816H102.042ZM103.042 83H97.9378V85H103.042V83ZM97.9378 83C95.6866 83 93.9555 82.3374 92.6469 81.0792L91.2607 82.5208C93.0028 84.1959 95.261 85 97.9378 85V83ZM92.6609 81.0929C91.3503 79.7822 90.6658 78.0558 90.6658 75.816H88.6658C88.6658 78.5042 89.5067 80.7671 91.2467 82.5071L92.6609 81.0929ZM90.6658 75.816V48.184H88.6658V75.816H90.6658ZM89.6658 47.184H85.9698V49.184H89.6658V47.184ZM86.9662 48.2697L87.6702 40.0857L85.6775 39.9143L84.9735 48.0983L86.9662 48.2697ZM86.6738 41H89.6658V39H86.6738V41ZM90.6658 40V30.584H88.6658V40H90.6658ZM89.6658 29.584H87.4658V31.584H89.6658V29.584ZM88.4622 30.6697L89.1662 22.4857L87.1735 22.3143L86.4695 30.4983L88.4622 30.6697ZM88.1698 23.4H98.0258V21.4H88.1698V23.4ZM97.0258 22.4V40H99.0258V22.4H97.0258ZM98.0258 41H103.042V39H98.0258V41ZM102.046 39.9143L101.342 48.0983L103.334 48.2697L104.038 40.0857L102.046 39.9143ZM102.338 47.184H98.0258V49.184H102.338V47.184ZM97.0258 48.184V75.816H99.0258V48.184H97.0258ZM98.0258 76.816H103.042V74.816H98.0258V76.816ZM107.528 41.936L108.222 42.6568L108.229 42.65L108.236 42.6431L107.528 41.936ZM125.832 41.936L125.125 42.6431L125.132 42.65L125.139 42.6568L125.832 41.936ZM125.832 82.152L126.526 82.8728L126.533 82.866L126.54 82.8591L125.832 82.152ZM107.528 82.152L106.821 82.8591L106.828 82.866L106.835 82.8728L107.528 82.152ZM120.76 48.272C120.76 47.9712 120.685 47.5619 120.358 47.2349C120.031 46.9079 119.621 46.832 119.32 46.832V48.832C119.313 48.832 119.124 48.8295 118.943 48.6491C118.763 48.4688 118.76 48.2795 118.76 48.272H120.76ZM119.32 46.832H114.04V48.832H119.32V46.832ZM114.04 46.832C113.74 46.832 113.33 46.9079 113.003 47.2349C112.676 47.5619 112.6 47.9712 112.6 48.272H114.6C114.6 48.2795 114.598 48.4688 114.418 48.6491C114.237 48.8295 114.048 48.832 114.04 48.832V46.832ZM112.6 48.272V75.728H114.6V48.272H112.6ZM112.6 75.728C112.6 76.0288 112.676 76.4381 113.003 76.7651C113.33 77.0921 113.74 77.168 114.04 77.168V75.168C114.048 75.168 114.237 75.1705 114.418 75.3509C114.598 75.5312 114.6 75.7205 114.6 75.728H112.6ZM114.04 77.168H119.32V75.168H114.04V77.168ZM119.32 77.168C119.574 77.168 119.949 77.1217 120.275 76.8609C120.644 76.566 120.76 76.154 120.76 75.816H118.76C118.76 75.7722 118.767 75.6879 118.81 75.5854C118.855 75.4768 118.929 75.3764 119.026 75.2991C119.205 75.1557 119.36 75.168 119.32 75.168V77.168ZM120.76 75.816V48.272H118.76V75.816H120.76ZM106.24 76.168V47.832H104.24V76.168H106.24ZM106.24 47.832C106.24 45.5914 106.925 43.9037 108.222 42.6568L106.835 41.2152C105.081 42.9016 104.24 45.1446 104.24 47.832H106.24ZM108.236 42.6431C109.546 41.3324 111.273 40.648 113.512 40.648V38.648C110.824 38.648 108.561 39.4889 106.821 41.2289L108.236 42.6431ZM113.512 40.648H119.848V38.648H113.512V40.648ZM119.848 40.648C122.088 40.648 123.815 41.3324 125.125 42.6431L126.54 41.2289C124.8 39.4889 122.537 38.648 119.848 38.648V40.648ZM125.139 42.6568C126.436 43.9037 127.12 45.5914 127.12 47.832H129.12C129.12 45.1446 128.279 42.9016 126.526 41.2152L125.139 42.6568ZM127.12 47.832V76.168H129.12V47.832H127.12ZM127.12 76.168C127.12 78.4078 126.436 80.1342 125.125 81.4449L126.54 82.8591C128.28 81.1191 129.12 78.8562 129.12 76.168H127.12ZM125.139 81.4312C123.831 82.6894 122.1 83.352 119.848 83.352V85.352C122.525 85.352 124.783 84.5479 126.526 82.8728L125.139 81.4312ZM119.848 83.352H113.512V85.352H119.848V83.352ZM113.512 83.352C111.261 83.352 109.53 82.6894 108.222 81.4312L106.835 82.8728C108.577 84.5479 110.836 85.352 113.512 85.352V83.352ZM108.236 81.4449C106.925 80.1342 106.24 78.4078 106.24 76.168H104.24C104.24 78.8562 105.081 81.1191 106.821 82.8591L108.236 81.4449ZM131.623 30.584H130.623V31.584H131.623V30.584ZM131.623 22.4V21.4H130.623V22.4H131.623ZM155.823 22.4H156.823V21.4H155.823V22.4ZM155.823 30.584V31.584H156.823V30.584H155.823ZM147.903 30.584V29.584H146.903V30.584H147.903ZM147.903 84V85H148.903V84H147.903ZM139.543 84H138.543V85H139.543V84ZM139.543 30.584H140.543V29.584H139.543V30.584ZM132.623 30.584V22.4H130.623V30.584H132.623ZM131.623 23.4H155.823V21.4H131.623V23.4ZM154.823 22.4V30.584H156.823V22.4H154.823ZM155.823 29.584H147.903V31.584H155.823V29.584ZM146.903 30.584V84H148.903V30.584H146.903ZM147.903 83H139.543V85H147.903V83ZM140.543 84V30.584H138.543V84H140.543ZM139.543 29.584H131.623V31.584H139.543V29.584ZM167.301 28.296L168.295 28.1891L168.199 27.296H167.301V28.296ZM168.181 36.48V37.48H169.294L169.175 36.3731L168.181 36.48ZM159.821 36.48H158.821V37.48H159.821V36.48ZM159.821 28.296V27.296H158.821V28.296H159.821ZM168.181 40H169.181V39H168.181V40ZM168.181 84V85H169.181V84H168.181ZM159.821 84H158.821V85H159.821V84ZM159.821 48.184H160.821V47.184H159.821V48.184ZM158.501 48.184L157.507 48.0771L157.388 49.184H158.501V48.184ZM159.381 40V39H158.483L158.387 39.8931L159.381 40ZM166.307 28.4029L167.187 36.5869L169.175 36.3731L168.295 28.1891L166.307 28.4029ZM168.181 35.48H159.821V37.48H168.181V35.48ZM160.821 36.48V28.296H158.821V36.48H160.821ZM159.821 29.296H167.301V27.296H159.821V29.296ZM167.181 40V84H169.181V40H167.181ZM168.181 83H159.821V85H168.181V83ZM160.821 84V48.184H158.821V84H160.821ZM159.821 47.184H158.501V49.184H159.821V47.184ZM159.495 48.2909L160.375 40.1069L158.387 39.8931L157.507 48.0771L159.495 48.2909ZM159.381 41H168.181V39H159.381V41ZM195.156 84V85H196.156V84H195.156ZM186.796 84H185.796V85H186.796V84ZM181.692 48.184V47.184H180.692V48.184H181.692ZM181.692 84V85H182.692V84H181.692ZM173.332 84H172.332V85H173.332V84ZM173.332 48.184H174.332V47.184H173.332V48.184ZM171.22 48.184L170.226 48.0771L170.107 49.184H171.22V48.184ZM172.1 40V39H171.202L171.106 39.8931L172.1 40ZM181.692 40H182.692V39H181.692V40ZM181.692 43.432H180.692V46.845L182.534 43.9717L181.692 43.432ZM183.892 40V39H183.345L183.05 39.4603L183.892 40ZM191.284 41.232L191.788 40.3682L191.284 41.232ZM194.364 44.576L193.455 44.9927L194.21 46.6394L195.201 45.1232L194.364 44.576ZM197.356 40V39H196.815L196.519 39.4528L197.356 40ZM206.156 42.288L205.462 43.0083L205.469 43.0146L205.475 43.0208L206.156 42.288ZM208.62 75.816H207.62V76.816H208.62V75.816ZM210.732 75.816L211.726 75.9229L211.845 74.816H210.732V75.816ZM209.852 84V85H210.75L210.846 84.1069L209.852 84ZM200.26 84H199.26V85H200.26V84ZM195.156 48.184V47.184H194.156V48.184H195.156ZM195.156 83H186.796V85H195.156V83ZM187.796 84V48.624H185.796V84H187.796ZM187.796 48.624C187.796 48.3232 187.72 47.9139 187.393 47.5869C187.066 47.2599 186.657 47.184 186.356 47.184V49.184C186.348 49.184 186.159 49.1815 185.979 49.0011C185.798 48.8208 185.796 48.6315 185.796 48.624H187.796ZM186.356 47.184H181.692V49.184H186.356V47.184ZM180.692 48.184V84H182.692V48.184H180.692ZM181.692 83H173.332V85H181.692V83ZM174.332 84V48.184H172.332V84H174.332ZM173.332 47.184H171.22V49.184H173.332V47.184ZM172.214 48.2909L173.094 40.1069L171.106 39.8931L170.226 48.0771L172.214 48.2909ZM172.1 41H181.692V39H172.1V41ZM180.692 40V43.432H182.692V40H180.692ZM182.534 43.9717L184.734 40.5397L183.05 39.4603L180.85 42.8923L182.534 43.9717ZM183.892 41H186.268V39H183.892V41ZM186.268 41C188.06 41 189.551 41.3791 190.78 42.0958L191.788 40.3682C190.2 39.4422 188.348 39 186.268 39V41ZM190.78 42.0958C192.02 42.8191 192.9 43.782 193.455 44.9927L195.273 44.1593C194.537 42.554 193.364 41.2875 191.788 40.3682L190.78 42.0958ZM195.201 45.1232L198.193 40.5472L196.519 39.4528L193.527 44.0287L195.201 45.1232ZM197.356 41H199.732V39H197.356V41ZM199.732 41C202.234 41 204.105 41.7013 205.462 43.0083L206.849 41.5677C205.039 39.824 202.627 39 199.732 39V41ZM205.475 43.0208C206.898 44.342 207.62 46.034 207.62 48.184H209.62C209.62 45.5233 208.699 43.2847 206.836 41.5552L205.475 43.0208ZM207.62 48.184V75.816H209.62V48.184H207.62ZM208.62 76.816H210.732V74.816H208.62V76.816ZM209.738 75.7091L208.858 83.8931L210.846 84.1069L211.726 75.9229L209.738 75.7091ZM209.852 83H200.26V85H209.852V83ZM201.26 84V48.624H199.26V84H201.26ZM201.26 48.624C201.26 48.3232 201.184 47.9139 200.857 47.5869C200.53 47.2599 200.121 47.184 199.82 47.184V49.184C199.812 49.184 199.623 49.1815 199.443 49.0011C199.262 48.8208 199.26 48.6315 199.26 48.624H201.26ZM199.82 47.184H195.156V49.184H199.82V47.184ZM194.156 48.184V84H196.156V48.184H194.156ZM215.638 41.936L216.331 42.6568L216.338 42.65L216.345 42.6431L215.638 41.936ZM233.062 41.936L232.355 42.6431L232.362 42.65L232.369 42.6568L233.062 41.936ZM235.35 58.656V59.656H236.35V58.656H235.35ZM226.99 58.656H225.99V59.656H226.99V58.656ZM221.71 58.656H220.71V59.656H221.71V58.656ZM235.35 58.656H236.35V57.656H235.35V58.656ZM235.35 66.84V67.84H236.35V66.84H235.35ZM221.71 66.84V65.84H220.71V66.84H221.71ZM226.99 70.976V69.976H225.99V70.976H226.99ZM235.35 70.976H236.35V69.976H235.35V70.976ZM233.062 82.152L233.755 82.8728L233.762 82.866L233.769 82.8591L233.062 82.152ZM215.638 82.152L214.931 82.8591L214.938 82.866L214.945 82.8728L215.638 82.152ZM214.35 76.168V47.832H212.35V76.168H214.35ZM214.35 47.832C214.35 45.5914 215.034 43.9037 216.331 42.6568L214.945 41.2152C213.191 42.9016 212.35 45.1446 212.35 47.832H214.35ZM216.345 42.6431C217.656 41.3324 219.382 40.648 221.622 40.648V38.648C218.934 38.648 216.671 39.4889 214.931 41.2289L216.345 42.6431ZM221.622 40.648H227.078V38.648H221.622V40.648ZM227.078 40.648C229.318 40.648 231.044 41.3324 232.355 42.6431L233.769 41.2289C232.029 39.4889 229.766 38.648 227.078 38.648V40.648ZM232.369 42.6568C233.666 43.9037 234.35 45.5914 234.35 47.832H236.35C236.35 45.1446 235.509 42.9016 233.755 41.2152L232.369 42.6568ZM234.35 47.832V58.656H236.35V47.832H234.35ZM235.35 57.656H226.99V59.656H235.35V57.656ZM227.99 58.656V48.272H225.99V58.656H227.99ZM227.99 48.272C227.99 47.9712 227.914 47.5619 227.587 47.2349C227.26 46.9079 226.851 46.832 226.55 46.832V48.832C226.542 48.832 226.353 48.8295 226.173 48.6491C225.992 48.4688 225.99 48.2795 225.99 48.272H227.99ZM226.55 46.832H222.15V48.832H226.55V46.832ZM222.15 46.832C221.849 46.832 221.44 46.9079 221.113 47.2349C220.786 47.5619 220.71 47.9712 220.71 48.272H222.71C222.71 48.2795 222.707 48.4688 222.527 48.6491C222.347 48.8295 222.157 48.832 222.15 48.832V46.832ZM220.71 48.272V58.656H222.71V48.272H220.71ZM221.71 59.656H235.35V57.656H221.71V59.656ZM234.35 58.656V66.84H236.35V58.656H234.35ZM235.35 65.84H221.71V67.84H235.35V65.84ZM220.71 66.84V75.728H222.71V66.84H220.71ZM220.71 75.728C220.71 76.0288 220.786 76.4381 221.113 76.7651C221.44 77.0921 221.849 77.168 222.15 77.168V75.168C222.157 75.168 222.347 75.1705 222.527 75.3509C222.707 75.5312 222.71 75.7205 222.71 75.728H220.71ZM222.15 77.168H226.55V75.168H222.15V77.168ZM226.55 77.168C226.803 77.168 227.179 77.1217 227.505 76.8609C227.873 76.566 227.99 76.154 227.99 75.816H225.99C225.99 75.7722 225.997 75.6879 226.039 75.5854C226.085 75.4768 226.159 75.3764 226.255 75.2991C226.434 75.1557 226.59 75.168 226.55 75.168V77.168ZM227.99 75.816V70.976H225.99V75.816H227.99ZM226.99 71.976H235.35V69.976H226.99V71.976ZM234.35 70.976V76.168H236.35V70.976H234.35ZM234.35 76.168C234.35 78.4078 233.665 80.1342 232.355 81.4449L233.769 82.8591C235.509 81.1191 236.35 78.8562 236.35 76.168H234.35ZM232.369 81.4312C231.06 82.6894 229.329 83.352 227.078 83.352V85.352C229.755 85.352 232.013 84.5479 233.755 82.8728L232.369 81.4312ZM227.078 83.352H221.622V85.352H227.078V83.352ZM221.622 83.352C219.371 83.352 217.64 82.6894 216.331 81.4312L214.945 82.8728C216.687 84.5479 218.945 85.352 221.622 85.352V83.352ZM216.345 81.4449C215.034 80.1342 214.35 78.4078 214.35 76.168H212.35C212.35 78.8562 213.191 81.1191 214.931 82.8591L216.345 81.4449Z" fill="black"/>
<path d="M8.5 84.5L0 79L3 77H14.5L8.5 84.5Z" fill="black"/>
<path d="M34.5 84.5L27 79L36 73L40 78L34.5 84.5Z" fill="black"/>
<path d="M48.5 84.5L42.5 79L52 73L55.5 78L48.5 84.5Z" fill="black"/>
<path d="M139 84.5L131 79C135.167 77.8333 143.7 75.6 144.5 76C145.5 76.5 145.5 80 145.5 81C145.5 81.8 141.167 83.6667 139 84.5Z" fill="black"/>
<path d="M159 84.5L151 79L161.5 74.5L163.5 81L159 84.5Z" fill="black"/>
<path d="M172.5 84.5L166.5 79L175 78C175.333 79 176 81.2 176 82C176 82.8 173.667 84 172.5 84.5Z" fill="black"/>
<path d="M185.5 84.5L181 79L188.5 78L190.5 82L185.5 84.5Z" fill="black"/>
<path d="M199.5 84.5L194.5 79C196.167 78.6667 199.8 78 201 78C202.5 78 202 81 203 82C203.8 82.8 201 84 199.5 84.5Z" fill="black"/>
<path d="M1.76672 22.584L2.64672 14.4H16.5507C19.0147 14.4 21.0094 15.1627 22.5347 16.688C24.0601 18.1547 24.8227 20.12 24.8227 22.584V50.128C24.8227 52.592 23.8841 54.5867 22.0067 56.112C20.1881 57.5787 18.0467 58.312 15.5827 58.312H11.4467V76H3.08672V22.584H1.76672ZM16.0227 22.584H11.4467V50.128H16.0227C16.3161 50.128 16.4627 49.9813 16.4627 49.688V23.024C16.4627 22.7307 16.3161 22.584 16.0227 22.584ZM29.574 76V22.584H27.462L28.342 14.4H37.934V35.432L40.134 32H42.51C45.2087 32 47.35 32.7627 48.934 34.288C50.5767 35.8133 51.398 37.7787 51.398 40.184V67.816H53.51L52.63 76H43.038V40.624C43.038 40.3307 42.8914 40.184 42.598 40.184H37.934V76H29.574ZM69.4167 40.272C69.4167 39.9787 69.2701 39.832 68.9767 39.832H63.6967C63.4034 39.832 63.2567 39.9787 63.2567 40.272V67.728C63.2567 68.0213 63.4034 68.168 63.6967 68.168H68.9767C69.2701 68.168 69.4167 68.0507 69.4167 67.816V40.272ZM54.8967 68.168V39.832C54.8967 37.368 55.6594 35.4027 57.1847 33.936C58.7101 32.4107 60.7047 31.648 63.1687 31.648H69.5047C71.9687 31.648 73.9634 32.4107 75.4887 33.936C77.0141 35.4027 77.7767 37.368 77.7767 39.832V68.168C77.7767 70.632 77.0141 72.6267 75.4887 74.152C73.9634 75.6187 71.9687 76.352 69.5047 76.352H63.1687C60.7047 76.352 58.7101 75.6187 57.1847 74.152C55.6594 72.6267 54.8967 70.632 54.8967 68.168ZM97.0418 67.816V76H91.9378C89.4738 76 87.4792 75.2667 85.9538 73.8C84.4285 72.2747 83.6658 70.28 83.6658 67.816V40.184H79.9698L80.6738 32H83.6658V22.584H81.4658L82.1698 14.4H92.0258V32H97.0418L96.3378 40.184H92.0258V67.816H97.0418ZM113.76 40.272C113.76 39.9787 113.614 39.832 113.32 39.832H108.04C107.747 39.832 107.6 39.9787 107.6 40.272V67.728C107.6 68.0213 107.747 68.168 108.04 68.168H113.32C113.614 68.168 113.76 68.0507 113.76 67.816V40.272ZM99.2405 68.168V39.832C99.2405 37.368 100.003 35.4027 101.528 33.936C103.054 32.4107 105.048 31.648 107.512 31.648H113.848C116.312 31.648 118.307 32.4107 119.832 33.936C121.358 35.4027 122.12 37.368 122.12 39.832V68.168C122.12 70.632 121.358 72.6267 119.832 74.152C118.307 75.6187 116.312 76.352 113.848 76.352H107.512C105.048 76.352 103.054 75.6187 101.528 74.152C100.003 72.6267 99.2405 70.632 99.2405 68.168ZM125.623 22.584V14.4H149.823V22.584H141.903V76H133.543V22.584H125.623ZM161.301 20.296L162.181 28.48H153.821V20.296H161.301ZM162.181 32V76H153.821V40.184H152.501L153.381 32H162.181ZM189.156 76H180.796V40.624C180.796 40.3307 180.649 40.184 180.356 40.184H175.692V76H167.332V40.184H165.22L166.1 32H175.692V35.432L177.892 32H180.268C182.204 32 183.876 32.4107 185.284 33.232C186.692 34.0533 187.719 35.168 188.364 36.576L191.356 32H193.732C196.431 32 198.572 32.7627 200.156 34.288C201.799 35.8133 202.62 37.7787 202.62 40.184V67.816H204.732L203.852 76H194.26V40.624C194.26 40.3307 194.113 40.184 193.82 40.184H189.156V76ZM207.35 68.168V39.832C207.35 37.368 208.113 35.4027 209.638 33.936C211.163 32.4107 213.158 31.648 215.622 31.648H221.078C223.542 31.648 225.537 32.4107 227.062 33.936C228.587 35.4027 229.35 37.368 229.35 39.832V50.656H220.99V40.272C220.99 39.9787 220.843 39.832 220.55 39.832H216.15C215.857 39.832 215.71 39.9787 215.71 40.272V50.656H229.35V58.84H215.71V67.728C215.71 68.0213 215.857 68.168 216.15 68.168H220.55C220.843 68.168 220.99 68.0507 220.99 67.816V62.976H229.35V68.168C229.35 70.632 228.587 72.6267 227.062 74.152C225.537 75.6187 223.542 76.352 221.078 76.352H215.622C213.158 76.352 211.163 75.6187 209.638 74.152C208.113 72.6267 207.35 70.632 207.35 68.168Z" fill="#E89029"/>
<path d="M1.76672 22.584L-1.21609 22.2633L-1.57316 25.584H1.76672V22.584ZM2.64672 14.4V11.4H-0.0479937L-0.336087 14.0793L2.64672 14.4ZM22.5347 16.688L20.4134 18.8093L20.4342 18.8301L20.4554 18.8505L22.5347 16.688ZM22.0067 56.112L23.89 58.4473L23.8985 58.4403L22.0067 56.112ZM11.4467 58.312V55.312H8.44672V58.312H11.4467ZM11.4467 76V79H14.4467V76H11.4467ZM3.08672 76H0.0867188V79H3.08672V76ZM3.08672 22.584H6.08672V19.584H3.08672V22.584ZM11.4467 22.584V19.584H8.44672V22.584H11.4467ZM11.4467 50.128H8.44672V53.128H11.4467V50.128ZM4.74952 22.9047L5.62952 14.7207L-0.336087 14.0793L-1.21609 22.2633L4.74952 22.9047ZM2.64672 17.4H16.5507V11.4H2.64672V17.4ZM16.5507 17.4C18.3421 17.4 19.5321 17.928 20.4134 18.8093L24.656 14.5667C22.4867 12.3974 19.6874 11.4 16.5507 11.4V17.4ZM20.4554 18.8505C21.295 19.6578 21.8227 20.7902 21.8227 22.584H27.8227C27.8227 19.4498 26.8251 16.6515 24.614 14.5255L20.4554 18.8505ZM21.8227 22.584V50.128H27.8227V22.584H21.8227ZM21.8227 50.128C21.8227 51.7082 21.2761 52.8402 20.1149 53.7837L23.8985 58.4403C26.492 56.3331 27.8227 53.4758 27.8227 50.128H21.8227ZM20.1235 53.7768C18.8688 54.7886 17.4018 55.312 15.5827 55.312V61.312C18.6916 61.312 21.5073 60.3687 23.89 58.4472L20.1235 53.7768ZM15.5827 55.312H11.4467V61.312H15.5827V55.312ZM8.44672 58.312V76H14.4467V58.312H8.44672ZM11.4467 73H3.08672V79H11.4467V73ZM6.08672 76V22.584H0.0867188V76H6.08672ZM3.08672 19.584H1.76672V25.584H3.08672V19.584ZM16.0227 19.584H11.4467V25.584H16.0227V19.584ZM8.44672 22.584V50.128H14.4467V22.584H8.44672ZM11.4467 53.128H16.0227V47.128H11.4467V53.128ZM16.0227 53.128C16.6318 53.128 17.6397 52.9737 18.474 52.1393C19.3084 51.3049 19.4627 50.2971 19.4627 49.688H13.4627C13.4627 49.3722 13.5437 48.5844 14.2314 47.8967C14.9191 47.209 15.7069 47.128 16.0227 47.128V53.128ZM19.4627 49.688V23.024H13.4627V49.688H19.4627ZM19.4627 23.024C19.4627 22.4149 19.3084 21.407 18.474 20.5727C17.6397 19.7383 16.6318 19.584 16.0227 19.584V25.584C15.707 25.584 14.9191 25.503 14.2314 24.8153C13.5437 24.1276 13.4627 23.3398 13.4627 23.024H19.4627ZM29.574 76H26.574V79H29.574V76ZM29.574 22.584H32.574V19.584H29.574V22.584ZM27.462 22.584L24.4792 22.2633L24.1222 25.584H27.462V22.584ZM28.342 14.4V11.4H25.6473L25.3592 14.0793L28.342 14.4ZM37.934 14.4H40.934V11.4H37.934V14.4ZM37.934 35.432H34.934V45.671L40.4597 37.051L37.934 35.432ZM40.134 32V29H38.4937L37.6084 30.381L40.134 32ZM48.934 34.288L46.8531 36.449L46.8727 36.4678L46.8927 36.4864L48.934 34.288ZM51.398 67.816H48.398V70.816H51.398V67.816ZM53.51 67.816L56.4928 68.1367L56.8499 64.816H53.51V67.816ZM52.63 76V79H55.3247L55.6128 76.3207L52.63 76ZM43.038 76H40.038V79H43.038V76ZM37.934 40.184V37.184H34.934V40.184H37.934ZM37.934 76V79H40.934V76H37.934ZM32.574 76V22.584H26.574V76H32.574ZM29.574 19.584H27.462V25.584H29.574V19.584ZM30.4448 22.9047L31.3248 14.7207L25.3592 14.0793L24.4792 22.2633L30.4448 22.9047ZM28.342 17.4H37.934V11.4H28.342V17.4ZM34.934 14.4V35.432H40.934V14.4H34.934ZM40.4597 37.051L42.6597 33.619L37.6084 30.381L35.4084 33.813L40.4597 37.051ZM40.134 35H42.51V29H40.134V35ZM42.51 35C44.6189 35 45.9493 35.5786 46.8531 36.449L51.015 32.127C48.7508 29.9467 45.7985 29 42.51 29V35ZM46.8927 36.4864C47.8758 37.3993 48.398 38.5447 48.398 40.184H54.398C54.398 37.0127 53.2776 34.2274 50.9754 32.0896L46.8927 36.4864ZM48.398 40.184V67.816H54.398V40.184H48.398ZM51.398 70.816H53.51V64.816H51.398V70.816ZM50.5272 67.4953L49.6472 75.6793L55.6128 76.3207L56.4928 68.1367L50.5272 67.4953ZM52.63 73H43.038V79H52.63V73ZM46.038 76V40.624H40.038V76H46.038ZM46.038 40.624C46.038 40.0149 45.8837 39.0071 45.0494 38.1727C44.215 37.3383 43.2071 37.184 42.598 37.184V43.184C42.2823 43.184 41.4944 43.103 40.8067 42.4153C40.119 41.7276 40.038 40.9398 40.038 40.624H46.038ZM42.598 37.184H37.934V43.184H42.598V37.184ZM34.934 40.184V76H40.934V40.184H34.934ZM37.934 73H29.574V79H37.934V73ZM57.1847 33.936L59.264 36.0985L59.2852 36.0781L59.306 36.0573L57.1847 33.936ZM75.4887 33.936L73.3674 36.0573L73.3882 36.0781L73.4094 36.0985L75.4887 33.936ZM75.4887 74.152L77.568 76.3145L77.5892 76.2941L77.61 76.2733L75.4887 74.152ZM57.1847 74.152L55.0634 76.2733L55.0842 76.2941L55.1054 76.3145L57.1847 74.152ZM72.4167 40.272C72.4167 39.6629 72.2624 38.6551 71.428 37.8207C70.5937 36.9863 69.5858 36.832 68.9767 36.832V42.832C68.6609 42.832 67.8731 42.751 67.1854 42.0633C66.4977 41.3756 66.4167 40.5878 66.4167 40.272H72.4167ZM68.9767 36.832H63.6967V42.832H68.9767V36.832ZM63.6967 36.832C63.0876 36.832 62.0798 36.9863 61.2454 37.8207C60.411 38.655 60.2567 39.6629 60.2567 40.272H66.2567C66.2567 40.5878 66.1757 41.3756 65.488 42.0633C64.8003 42.751 64.0125 42.832 63.6967 42.832V36.832ZM60.2567 40.272V67.728H66.2567V40.272H60.2567ZM60.2567 67.728C60.2567 68.3371 60.411 69.3449 61.2454 70.1793C62.0798 71.0137 63.0876 71.168 63.6967 71.168V65.168C64.0125 65.168 64.8003 65.249 65.488 65.9367C66.1757 66.6244 66.2567 67.4122 66.2567 67.728H60.2567ZM63.6967 71.168H68.9767V65.168H63.6967V71.168ZM68.9767 71.168C69.4439 71.168 70.3495 71.0877 71.1808 70.4226C72.14 69.6553 72.4167 68.5955 72.4167 67.816H66.4167C66.4167 67.2712 66.6201 66.3874 67.4326 65.7374C68.1173 65.1897 68.8029 65.168 68.9767 65.168V71.168ZM72.4167 67.816V40.272H66.4167V67.816H72.4167ZM57.8967 68.168V39.832H51.8967V68.168H57.8967ZM57.8967 39.832C57.8967 38.0382 58.4244 36.9058 59.264 36.0985L55.1054 31.7735C52.8944 33.8995 51.8967 36.6978 51.8967 39.832H57.8967ZM59.306 36.0573C60.1874 35.176 61.3774 34.648 63.1687 34.648V28.648C60.0321 28.648 57.2327 29.6454 55.0634 31.8147L59.306 36.0573ZM63.1687 34.648H69.5047V28.648H63.1687V34.648ZM69.5047 34.648C71.2961 34.648 72.4861 35.176 73.3674 36.0573L77.61 31.8147C75.4407 29.6454 72.6414 28.648 69.5047 28.648V34.648ZM73.4094 36.0985C74.249 36.9058 74.7767 38.0382 74.7767 39.832H80.7767C80.7767 36.6978 79.7791 33.8995 77.568 31.7735L73.4094 36.0985ZM74.7767 39.832V68.168H80.7767V39.832H74.7767ZM74.7767 68.168C74.7767 69.9593 74.2487 71.1493 73.3674 72.0307L77.61 76.2733C79.7794 74.104 80.7767 71.3047 80.7767 68.168H74.7767ZM73.4094 71.9895C72.5344 72.8309 71.3303 73.352 69.5047 73.352V79.352C72.6071 79.352 75.3924 78.4065 77.568 76.3145L73.4094 71.9895ZM69.5047 73.352H63.1687V79.352H69.5047V73.352ZM63.1687 73.352C61.3431 73.352 60.1391 72.8309 59.264 71.9895L55.1054 76.3145C57.281 78.4065 60.0663 79.352 63.1687 79.352V73.352ZM59.306 72.0307C58.4247 71.1493 57.8967 69.9593 57.8967 68.168H51.8967C51.8967 71.3047 52.8941 74.104 55.0634 76.2733L59.306 72.0307ZM97.0418 67.816H100.042V64.816H97.0418V67.816ZM97.0418 76V79H100.042V76H97.0418ZM85.9538 73.8L83.8325 75.9213L83.8533 75.9421L83.8745 75.9625L85.9538 73.8ZM83.6658 40.184H86.6658V37.184H83.6658V40.184ZM79.9698 40.184L76.9809 39.9269L76.7007 43.184H79.9698V40.184ZM80.6738 32V29H77.9208L77.6849 31.7429L80.6738 32ZM83.6658 32V35H86.6658V32H83.6658ZM83.6658 22.584H86.6658V19.584H83.6658V22.584ZM81.4658 22.584L78.4769 22.3269L78.1967 25.584H81.4658V22.584ZM82.1698 14.4V11.4H79.4168L79.1809 14.1429L82.1698 14.4ZM92.0258 14.4H95.0258V11.4H92.0258V14.4ZM92.0258 32H89.0258V35H92.0258V32ZM97.0418 32L100.031 32.2571L100.311 29H97.0418V32ZM96.3378 40.184V43.184H99.0909L99.3268 40.4411L96.3378 40.184ZM92.0258 40.184V37.184H89.0258V40.184H92.0258ZM92.0258 67.816H89.0258V70.816H92.0258V67.816ZM94.0418 67.816V76H100.042V67.816H94.0418ZM97.0418 73H91.9378V79H97.0418V73ZM91.9378 73C90.1122 73 88.9082 72.4789 88.0332 71.6375L83.8745 75.9625C86.0502 78.0545 88.8354 79 91.9378 79V73ZM88.0752 71.6787C87.1938 70.7973 86.6658 69.6073 86.6658 67.816H80.6658C80.6658 70.9527 81.6632 73.752 83.8325 75.9213L88.0752 71.6787ZM86.6658 67.816V40.184H80.6658V67.816H86.6658ZM83.6658 37.184H79.9698V43.184H83.6658V37.184ZM82.9588 40.4411L83.6628 32.2571L77.6849 31.7429L76.9809 39.9269L82.9588 40.4411ZM80.6738 35H83.6658V29H80.6738V35ZM86.6658 32V22.584H80.6658V32H86.6658ZM83.6658 19.584H81.4658V25.584H83.6658V19.584ZM84.4548 22.8411L85.1588 14.6571L79.1809 14.1429L78.4769 22.3269L84.4548 22.8411ZM82.1698 17.4H92.0258V11.4H82.1698V17.4ZM89.0258 14.4V32H95.0258V14.4H89.0258ZM92.0258 35H97.0418V29H92.0258V35ZM94.0529 31.7429L93.3489 39.9269L99.3268 40.4411L100.031 32.2571L94.0529 31.7429ZM96.3378 37.184H92.0258V43.184H96.3378V37.184ZM89.0258 40.184V67.816H95.0258V40.184H89.0258ZM92.0258 70.816H97.0418V64.816H92.0258V70.816ZM101.528 33.936L103.608 36.0985L103.629 36.0781L103.65 36.0573L101.528 33.936ZM119.832 33.936L117.711 36.0573L117.732 36.0781L117.753 36.0985L119.832 33.936ZM119.832 74.152L121.912 76.3145L121.933 76.2941L121.954 76.2733L119.832 74.152ZM101.528 74.152L99.4072 76.2733L99.4279 76.2941L99.4491 76.3145L101.528 74.152ZM116.76 40.272C116.76 39.6629 116.606 38.6551 115.772 37.8207C114.937 36.9863 113.93 36.832 113.32 36.832V42.832C113.005 42.832 112.217 42.751 111.529 42.0633C110.841 41.3756 110.76 40.5878 110.76 40.272H116.76ZM113.32 36.832H108.04V42.832H113.32V36.832ZM108.04 36.832C107.431 36.832 106.424 36.9863 105.589 37.8207C104.755 38.655 104.6 39.6629 104.6 40.272H110.6C110.6 40.5878 110.519 41.3756 109.832 42.0633C109.144 42.751 108.356 42.832 108.04 42.832V36.832ZM104.6 40.272V67.728H110.6V40.272H104.6ZM104.6 67.728C104.6 68.3371 104.755 69.3449 105.589 70.1793C106.424 71.0137 107.431 71.168 108.04 71.168V65.168C108.356 65.168 109.144 65.249 109.832 65.9367C110.519 66.6244 110.6 67.4122 110.6 67.728H104.6ZM108.04 71.168H113.32V65.168H108.04V71.168ZM113.32 71.168C113.788 71.168 114.693 71.0877 115.525 70.4226C116.484 69.6553 116.76 68.5955 116.76 67.816H110.76C110.76 67.2712 110.964 66.3874 111.776 65.7374C112.461 65.1897 113.147 65.168 113.32 65.168V71.168ZM116.76 67.816V40.272H110.76V67.816H116.76ZM102.24 68.168V39.832H96.2405V68.168H102.24ZM102.24 39.832C102.24 38.0382 102.768 36.9058 103.608 36.0985L99.4491 31.7735C97.2381 33.8995 96.2405 36.6978 96.2405 39.832H102.24ZM103.65 36.0573C104.531 35.176 105.721 34.648 107.512 34.648V28.648C104.376 28.648 101.576 29.6454 99.4072 31.8147L103.65 36.0573ZM107.512 34.648H113.848V28.648H107.512V34.648ZM113.848 34.648C115.64 34.648 116.83 35.176 117.711 36.0573L121.954 31.8147C119.784 29.6454 116.985 28.648 113.848 28.648V34.648ZM117.753 36.0985C118.593 36.9058 119.12 38.0382 119.12 39.832H125.12C125.12 36.6978 124.123 33.8995 121.912 31.7735L117.753 36.0985ZM119.12 39.832V68.168H125.12V39.832H119.12ZM119.12 68.168C119.12 69.9593 118.592 71.1493 117.711 72.0307L121.954 76.2733C124.123 74.104 125.12 71.3047 125.12 68.168H119.12ZM117.753 71.9895C116.878 72.8309 115.674 73.352 113.848 73.352V79.352C116.951 79.352 119.736 78.4065 121.912 76.3145L117.753 71.9895ZM113.848 73.352H107.512V79.352H113.848V73.352ZM107.512 73.352C105.687 73.352 104.483 72.8309 103.608 71.9895L99.4491 76.3145C101.625 78.4065 104.41 79.352 107.512 79.352V73.352ZM103.65 72.0307C102.768 71.1493 102.24 69.9593 102.24 68.168H96.2405C96.2405 71.3047 97.2378 74.104 99.4072 76.2733L103.65 72.0307ZM125.623 22.584H122.623V25.584H125.623V22.584ZM125.623 14.4V11.4H122.623V14.4H125.623ZM149.823 14.4H152.823V11.4H149.823V14.4ZM149.823 22.584V25.584H152.823V22.584H149.823ZM141.903 22.584V19.584H138.903V22.584H141.903ZM141.903 76V79H144.903V76H141.903ZM133.543 76H130.543V79H133.543V76ZM133.543 22.584H136.543V19.584H133.543V22.584ZM128.623 22.584V14.4H122.623V22.584H128.623ZM125.623 17.4H149.823V11.4H125.623V17.4ZM146.823 14.4V22.584H152.823V14.4H146.823ZM149.823 19.584H141.903V25.584H149.823V19.584ZM138.903 22.584V76H144.903V22.584H138.903ZM141.903 73H133.543V79H141.903V73ZM136.543 76V22.584H130.543V76H136.543ZM133.543 19.584H125.623V25.584H133.543V19.584ZM161.301 20.296L164.284 19.9753L163.996 17.296H161.301V20.296ZM162.181 28.48V31.48H165.521L165.164 28.1593L162.181 28.48ZM153.821 28.48H150.821V31.48H153.821V28.48ZM153.821 20.296V17.296H150.821V20.296H153.821ZM162.181 32H165.181V29H162.181V32ZM162.181 76V79H165.181V76H162.181ZM153.821 76H150.821V79H153.821V76ZM153.821 40.184H156.821V37.184H153.821V40.184ZM152.501 40.184L149.518 39.8633L149.161 43.184H152.501V40.184ZM153.381 32V29H150.686L150.398 31.6793L153.381 32ZM158.318 20.6167L159.198 28.8007L165.164 28.1593L164.284 19.9753L158.318 20.6167ZM162.181 25.48H153.821V31.48H162.181V25.48ZM156.821 28.48V20.296H150.821V28.48H156.821ZM153.821 23.296H161.301V17.296H153.821V23.296ZM159.181 32V76H165.181V32H159.181ZM162.181 73H153.821V79H162.181V73ZM156.821 76V40.184H150.821V76H156.821ZM153.821 37.184H152.501V43.184H153.821V37.184ZM155.484 40.5047L156.364 32.3207L150.398 31.6793L149.518 39.8633L155.484 40.5047ZM153.381 35H162.181V29H153.381V35ZM189.156 76V79H192.156V76H189.156ZM180.796 76H177.796V79H180.796V76ZM175.692 40.184V37.184H172.692V40.184H175.692ZM175.692 76V79H178.692V76H175.692ZM167.332 76H164.332V79H167.332V76ZM167.332 40.184H170.332V37.184H167.332V40.184ZM165.22 40.184L162.237 39.8633L161.88 43.184H165.22V40.184ZM166.1 32V29H163.405L163.117 31.6793L166.1 32ZM175.692 32H178.692V29H175.692V32ZM175.692 35.432H172.692V45.671L178.217 37.051L175.692 35.432ZM177.892 32V29H176.251L175.366 30.381L177.892 32ZM185.284 33.232L186.795 30.6407L185.284 33.232ZM188.364 36.576L185.637 37.826L187.901 42.7661L190.875 38.2177L188.364 36.576ZM191.356 32V29H189.733L188.845 30.3583L191.356 32ZM200.156 34.288L198.075 36.449L198.095 36.4678L198.114 36.4864L200.156 34.288ZM202.62 67.816H199.62V70.816H202.62V67.816ZM204.732 67.816L207.715 68.1367L208.072 64.816H204.732V67.816ZM203.852 76V79H206.547L206.835 76.3207L203.852 76ZM194.26 76H191.26V79H194.26V76ZM189.156 40.184V37.184H186.156V40.184H189.156ZM189.156 73H180.796V79H189.156V73ZM183.796 76V40.624H177.796V76H183.796ZM183.796 40.624C183.796 40.0149 183.642 39.0071 182.807 38.1727C181.973 37.3383 180.965 37.184 180.356 37.184V43.184C180.04 43.184 179.252 43.103 178.565 42.4153C177.877 41.7276 177.796 40.9398 177.796 40.624H183.796ZM180.356 37.184H175.692V43.184H180.356V37.184ZM172.692 40.184V76H178.692V40.184H172.692ZM175.692 73H167.332V79H175.692V73ZM170.332 76V40.184H164.332V76H170.332ZM167.332 37.184H165.22V43.184H167.332V37.184ZM168.203 40.5047L169.083 32.3207L163.117 31.6793L162.237 39.8633L168.203 40.5047ZM166.1 35H175.692V29H166.1V35ZM172.692 32V35.432H178.692V32H172.692ZM178.217 37.051L180.417 33.619L175.366 30.381L173.166 33.813L178.217 37.051ZM177.892 35H180.268V29H177.892V35ZM180.268 35C181.773 35 182.902 35.316 183.772 35.8233L186.795 30.6407C184.849 29.5054 182.635 29 180.268 29V35ZM183.772 35.8233C184.676 36.3507 185.263 37.01 185.637 37.826L191.091 35.326C190.174 33.326 188.707 31.756 186.795 30.6407L183.772 35.8233ZM190.875 38.2177L193.867 33.6418L188.845 30.3583L185.853 34.9342L190.875 38.2177ZM191.356 35H193.732V29H191.356V35ZM193.732 35C195.841 35 197.171 35.5786 198.075 36.449L202.237 32.127C199.973 29.9467 197.02 29 193.732 29V35ZM198.114 36.4864C199.098 37.3993 199.62 38.5447 199.62 40.184H205.62C205.62 37.0127 204.499 34.2274 202.197 32.0896L198.114 36.4864ZM199.62 40.184V67.816H205.62V40.184H199.62ZM202.62 70.816H204.732V64.816H202.62V70.816ZM201.749 67.4953L200.869 75.6793L206.835 76.3207L207.715 68.1367L201.749 67.4953ZM203.852 73H194.26V79H203.852V73ZM197.26 76V40.624H191.26V76H197.26ZM197.26 40.624C197.26 40.0149 197.106 39.0071 196.271 38.1727C195.437 37.3383 194.429 37.184 193.82 37.184V43.184C193.504 43.184 192.716 43.103 192.029 42.4153C191.341 41.7276 191.26 40.9398 191.26 40.624H197.26ZM193.82 37.184H189.156V43.184H193.82V37.184ZM186.156 40.184V76H192.156V40.184H186.156ZM209.638 33.936L211.717 36.0985L211.738 36.0781L211.759 36.0573L209.638 33.936ZM227.062 33.936L224.941 36.0573L224.961 36.0781L224.983 36.0985L227.062 33.936ZM229.35 50.656V53.656H232.35V50.656H229.35ZM220.99 50.656H217.99V53.656H220.99V50.656ZM215.71 50.656H212.71V53.656H215.71V50.656ZM229.35 50.656H232.35V47.656H229.35V50.656ZM229.35 58.84V61.84H232.35V58.84H229.35ZM215.71 58.84V55.84H212.71V58.84H215.71ZM220.99 62.976V59.976H217.99V62.976H220.99ZM229.35 62.976H232.35V59.976H229.35V62.976ZM227.062 74.152L229.141 76.3145L229.162 76.2941L229.183 76.2733L227.062 74.152ZM209.638 74.152L207.517 76.2733L207.537 76.2941L207.559 76.3145L209.638 74.152ZM210.35 68.168V39.832H204.35V68.168H210.35ZM210.35 39.832C210.35 38.0382 210.878 36.9058 211.717 36.0985L207.559 31.7735C205.347 33.8995 204.35 36.6978 204.35 39.832H210.35ZM211.759 36.0573C212.641 35.176 213.831 34.648 215.622 34.648V28.648C212.485 28.648 209.686 29.6454 207.517 31.8147L211.759 36.0573ZM215.622 34.648H221.078V28.648H215.622V34.648ZM221.078 34.648C222.869 34.648 224.059 35.176 224.941 36.0573L229.183 31.8147C227.014 29.6454 224.215 28.648 221.078 28.648V34.648ZM224.983 36.0985C225.822 36.9058 226.35 38.0382 226.35 39.832H232.35C232.35 36.6978 231.352 33.8995 229.141 31.7735L224.983 36.0985ZM226.35 39.832V50.656H232.35V39.832H226.35ZM229.35 47.656H220.99V53.656H229.35V47.656ZM223.99 50.656V40.272H217.99V50.656H223.99ZM223.99 40.272C223.99 39.6629 223.836 38.655 223.001 37.8207C222.167 36.9863 221.159 36.832 220.55 36.832V42.832C220.234 42.832 219.446 42.751 218.759 42.0633C218.071 41.3756 217.99 40.5878 217.99 40.272H223.99ZM220.55 36.832H216.15V42.832H220.55V36.832ZM216.15 36.832C215.541 36.832 214.533 36.9863 213.699 37.8207C212.864 38.655 212.71 39.6629 212.71 40.272H218.71C218.71 40.5878 218.629 41.3756 217.941 42.0633C217.253 42.751 216.466 42.832 216.15 42.832V36.832ZM212.71 40.272V50.656H218.71V40.272H212.71ZM215.71 53.656H229.35V47.656H215.71V53.656ZM226.35 50.656V58.84H232.35V50.656H226.35ZM229.35 55.84H215.71V61.84H229.35V55.84ZM212.71 58.84V67.728H218.71V58.84H212.71ZM212.71 67.728C212.71 68.3371 212.864 69.3449 213.699 70.1793C214.533 71.0137 215.541 71.168 216.15 71.168V65.168C216.466 65.168 217.253 65.249 217.941 65.9367C218.629 66.6244 218.71 67.4122 218.71 67.728H212.71ZM216.15 71.168H220.55V65.168H216.15V71.168ZM220.55 71.168C221.017 71.168 221.923 71.0877 222.754 70.4226C223.713 69.6553 223.99 68.5955 223.99 67.816H217.99C217.99 67.2712 218.193 66.3874 219.006 65.7374C219.69 65.1897 220.376 65.168 220.55 65.168V71.168ZM223.99 67.816V62.976H217.99V67.816H223.99ZM220.99 65.976H229.35V59.976H220.99V65.976ZM226.35 62.976V68.168H232.35V62.976H226.35ZM226.35 68.168C226.35 69.9593 225.822 71.1493 224.941 72.0307L229.183 76.2733C231.352 74.104 232.35 71.3047 232.35 68.168H226.35ZM224.983 71.9895C224.107 72.8309 222.903 73.352 221.078 73.352V79.352C224.18 79.352 226.966 78.4065 229.141 76.3145L224.983 71.9895ZM221.078 73.352H215.622V79.352H221.078V73.352ZM215.622 73.352C213.796 73.352 212.592 72.8309 211.717 71.9895L207.559 76.3145C209.734 78.4065 212.519 79.352 215.622 79.352V73.352ZM211.759 72.0307C210.878 71.1493 210.35 69.9593 210.35 68.168H204.35C204.35 71.3047 205.347 74.104 207.517 76.2733L211.759 72.0307Z" fill="black"/>
<path d="M167.777 136.522C165.935 133.578 164.428 130.516 163.635 127.079L167.777 136.522ZM167.777 136.522C170.76 141.291 175.195 144.025 179.8 146.292L179.8 146.292C184.048 148.38 188.596 149.443 193.272 149.808L193.274 149.809C193.274 149.809 193.299 149.812 193.372 149.836C193.416 149.85 193.455 149.864 193.519 149.887C193.577 149.906 193.651 149.931 193.73 149.955L193.867 149.994H194.01H197.892H197.988L198.083 149.976C199.015 149.795 199.979 149.634 200.958 149.471C203.264 149.087 205.652 148.688 207.898 147.982C210.818 147.065 213.569 145.583 216.147 144.12C216.147 144.12 216.147 144.12 216.147 144.12L167.777 136.522ZM163.035 115.98L162.52 115.874C162.594 115.515 162.667 115.151 162.74 114.784C162.916 113.904 163.095 113.006 163.299 112.123L163.299 112.122C163.411 111.639 163.596 111.025 163.966 110.499L163.967 110.497C164.18 110.197 164.445 109.982 164.644 109.832C164.761 109.745 164.841 109.688 164.909 109.64C164.992 109.583 165.056 109.537 165.145 109.466L165.949 108.814L166.572 109.641C166.639 109.728 166.69 109.787 166.757 109.864C166.81 109.925 166.872 109.996 166.958 110.101C167.112 110.288 167.315 110.554 167.449 110.89C167.449 110.891 167.449 110.891 167.449 110.891L163.035 115.98ZM163.035 115.98L162.497 116.067V116.077V116.086V116.096V116.106V116.116V116.125V116.135V116.145V116.155V116.164V116.174V116.184V116.194V116.203V116.213V116.223V116.232V116.242V116.252V116.262V116.271V116.281V116.291V116.301V116.31V116.32V116.33V116.34V116.349V116.359V116.369V116.378V116.388V116.398V116.408V116.417V116.427V116.437V116.447V116.456V116.466V116.476V116.486V116.495V116.505V116.515V116.524V116.534V116.544V116.554V116.563V116.573V116.583V116.593V116.602V116.612V116.622V116.632V116.641V116.651V116.661V116.67V116.68V116.69V116.7V116.709V116.719V116.729V116.739V116.748V116.758V116.768V116.777V116.787V116.797V116.807V116.816V116.826V116.836V116.846V116.855V116.865V116.875V116.885V116.894V116.904V116.914V116.923V116.933V116.943V116.953V116.962V116.972V116.982V116.992V117.001V117.011V117.021V117.03V117.04V117.05V117.06V117.069V117.079V117.089V117.099V117.108V117.118V117.128V117.137V117.147V117.157V117.167V117.176V117.186V117.196V117.206V117.215V117.225V117.235V117.244V117.254V117.264V117.274V117.283V117.293V117.303V117.313V117.322V117.332V117.342V117.352V117.361V117.371V117.381V117.39V117.4V117.41V117.42V117.429V117.439V117.449V117.459V117.468V117.478V117.488V117.497V117.507V117.517V117.527V117.536V117.546V117.556V117.566V117.575V117.585V117.595V117.604V117.614V117.624V117.634V117.643V117.653V117.663V117.673V117.682V117.692V117.702V117.711V117.721V117.731V117.741V117.75V117.76V117.77V117.78V117.789V117.799V117.809V117.818V117.828V117.838V117.848V117.857V117.867V117.877V117.887V117.896V117.906V117.916V117.925V117.935V117.945V117.955V117.964V117.974V117.984V117.994V118.003V118.013V118.023V118.032V118.042V118.052V118.062V118.071V118.081V118.091V118.101V118.11V118.12V118.13V118.139V118.149V118.159V118.169V118.178V118.188V118.198V118.207V118.217V118.227V118.237V118.246V118.256V118.266V118.276V118.285V118.295V118.305V118.314V118.324V118.334V118.344V118.353V118.363V118.373V118.383V118.392V118.402V118.412V118.421V118.431V118.441V118.451V118.46V118.47V118.48V118.49V118.499V118.509V118.519V118.528V118.538V118.548V118.558V118.567V118.577V118.587V118.597V118.606V118.616V118.626V118.635V118.645V118.655V118.665V118.674V118.684V118.694V118.704V118.713V118.723V118.733V118.742V118.752V118.762V118.772V118.781V118.791V118.801V118.811V118.82V118.83V118.84V118.849V118.859V118.869V118.879V118.888V118.898V118.908V118.918V118.927V118.937V118.947V118.956V118.966V118.976V118.986V118.995V119.005V119.015V119.025V119.034V119.044V119.054V119.063V119.073V119.083V119.093V119.102V119.112V119.122V119.132V119.141V119.151V119.161V119.17V119.18V119.19V119.2V119.209V119.219V119.229V119.239V119.248V119.258V119.268V119.277V119.287V119.297V119.307V119.316V119.326V119.336V119.346V119.355V119.365V119.375V119.384V119.394V119.404V119.414V119.423V119.433V119.443V119.453V119.462V119.472V119.482V119.491V119.501V119.511V119.521V119.53V119.54V119.55V119.56V119.569V119.579V119.589V119.598V119.608V119.618V119.628V119.637V119.647V119.657V119.667V119.676V119.686V119.696V119.705V119.715V119.725V119.735V119.744V119.754V119.764V119.774V119.783V119.793V119.803V119.812V119.822V119.832V119.842V119.851V119.861V119.871V119.881V119.89V119.9V119.91V119.919V119.929V119.939V119.949V119.958V119.968V119.978V119.988V119.997V120.007V120.017V120.026V120.036V120.046V120.056V120.065V120.075V120.085V120.095V120.104V120.114V120.124V120.133V120.143V120.153V120.163V120.172V120.182V120.192V120.202V120.211V120.221V120.231V120.241V120.25V120.26V120.27V120.279V120.289V120.299V120.309V120.318V120.328V120.338V120.348V120.357V120.367V120.377V120.386V120.396V120.406V120.416V120.425V120.435V120.445V120.455V120.464V120.474V120.484V120.494V120.503V120.513V120.523V120.532V120.542V120.552V120.562V120.571V120.581V120.591V120.601V120.61V120.62V120.63V120.639V120.649V120.659V120.669V120.678V120.688V120.698V120.708V120.717V120.727V120.737V120.747V120.756V120.766V120.776V120.785V120.795V120.805V120.815V120.824V120.834V120.844V120.854V120.863V120.873V120.883V120.893V120.902V120.912V120.922V120.931V120.941V120.951V120.961V120.97V120.98V120.99V121V121.009V121.019V121.029V121.039V121.048V121.142L162.515 121.234C162.624 121.814 162.73 122.405 162.836 123.002C163.077 124.351 163.323 125.73 163.635 127.078L163.035 115.98ZM186.405 118.946L186.405 118.946C186.884 118.533 187.365 118.115 187.848 117.696C191.021 114.941 194.289 112.104 197.904 109.854L197.905 109.854C205.232 105.295 213.126 105.427 221 108.204L186.405 118.946ZM186.405 118.946C183.194 121.712 178.089 121.833 174.117 120.111L186.405 118.946ZM236.923 109.341L236.924 109.341C246.953 104.529 258.165 105.109 267.443 113.162L267.443 113.162C268.358 113.957 269.233 114.789 270.09 115.609C270.167 115.683 270.245 115.757 270.322 115.831C271.103 116.579 271.87 117.314 272.659 118.02C276.689 121.626 281.354 122.141 286.231 120.231C289.129 119.093 291.002 116.467 292.273 113.304C292.437 112.893 292.578 112.465 292.727 112.005L292.764 111.89C292.899 111.472 293.043 111.026 293.209 110.588L293.209 110.586C293.288 110.378 293.413 110.141 293.569 109.934C293.647 109.83 293.753 109.708 293.887 109.6C294.013 109.498 294.229 109.355 294.524 109.312L294.529 109.311C294.92 109.255 295.293 109.371 295.534 109.48C295.764 109.585 296.133 109.801 296.345 110.187L296.346 110.188C296.376 110.243 296.409 110.301 296.443 110.362C296.756 110.924 297.206 111.728 297.303 112.581L297.303 112.581C297.349 112.979 297.397 113.382 297.447 113.79C297.689 115.796 297.944 117.907 297.858 119.991C297.75 122.602 297.386 125.28 296.667 127.822L296.667 127.822C295.782 130.945 294.405 133.845 292.572 136.626C289.373 141.479 284.86 144.222 280.009 146.546L279.577 145.644L280.009 146.546C275.653 148.632 271.037 149.321 266.557 149.986L266.484 149.997H266.41H261.973H261.882L261.793 149.981C261.092 149.852 260.368 149.735 259.632 149.616C257.955 149.344 256.215 149.062 254.556 148.615L254.556 148.615C250.907 147.632 247.538 146.061 244.246 144.283L244.246 144.283C241.177 142.625 238.541 140.497 235.981 138.431C235.748 138.243 235.516 138.056 235.285 137.87C233.802 136.677 232.456 135.242 231.184 133.885C230.872 133.553 230.565 133.225 230.261 132.906C230.224 132.938 230.188 132.97 230.152 133.001C229.606 133.482 229.098 133.929 228.601 134.406C228.085 134.903 227.597 135.41 227.095 135.933C226.842 136.195 226.586 136.462 226.321 136.732C225.545 137.525 224.72 138.323 223.802 139.027L236.923 109.341ZM236.923 109.341C235.551 110 234.277 110.821 233.054 111.662C232.588 111.983 232.137 112.302 231.69 112.618C231.146 113.002 230.608 113.382 230.059 113.755M236.923 109.341L230.059 113.755M230.059 113.755C227.486 111.553 224.568 109.461 221 108.204L230.059 113.755ZM194.01 148.994C193.942 148.975 193.874 148.951 193.807 148.928C193.656 148.875 193.505 148.823 193.35 148.811C188.774 148.454 184.354 147.416 180.241 145.394C175.682 143.151 171.456 140.519 168.625 135.992L194.01 148.994Z" fill="black" stroke="black" stroke-width="2"/>
<path d="M294.502 45.7546C294.46 45.7051 294.419 45.6537 294.381 45.6003C294.254 45.4222 294.082 45.1235 294.068 44.7457L294.068 44.739C294.054 44.2542 294.199 43.7484 294.395 43.3381C294.587 42.9368 294.902 42.4713 295.36 42.1844L295.361 42.1833C297.905 40.5946 300.628 40.7329 303.089 42.2128C303.417 42.4094 303.554 42.4187 303.608 42.4169C303.672 42.4147 303.808 42.3901 304.131 42.1873L304.132 42.1863C310.554 38.1716 318.586 39.2981 323.878 44.6943L323.879 44.6944C327.13 48.0103 328.97 51.9824 329.147 56.575M294.502 45.7546L328.148 56.6135M294.502 45.7546C295.064 45.6589 295.62 45.651 296.155 45.7285C295.676 45.5505 295.08 45.0577 295.067 44.7095C295.051 44.1464 295.422 43.3255 295.891 43.0315L294.502 45.7546ZM294.502 45.7546C293.911 45.8551 293.313 46.0521 292.724 46.3482L294.502 45.7546ZM329.147 56.575L328.148 56.6135M329.147 56.575C329.147 56.5749 329.147 56.5748 329.147 56.5747L328.148 56.6135M329.147 56.575C329.264 59.5988 328.906 62.7989 327.14 65.6517L327.14 65.652C326.847 66.1247 326.555 66.6064 326.26 67.0925C325.227 68.7935 324.161 70.5485 322.935 72.1625L322.934 72.1627C322.371 72.9037 321.685 73.5172 321.043 74.0634C320.906 74.1792 320.773 74.2914 320.642 74.4013C320.133 74.8295 319.665 75.2229 319.237 75.6599L319.237 75.66C318.086 76.8352 317 78.0871 315.969 79.3848L315.969 79.3852C315.839 79.549 315.709 79.7118 315.58 79.874C314.452 81.2885 313.365 82.6508 312.477 84.1241M328.148 56.6135C328.262 59.5423 327.907 62.5128 326.29 65.1255C325.987 65.6151 325.687 66.108 325.388 66.601C324.36 68.2945 323.331 69.9891 322.138 71.5573C321.547 72.3345 320.783 72.9765 320.016 73.6207C319.503 74.0525 318.987 74.4852 318.522 74.9604C317.344 76.1641 316.235 77.4427 315.186 78.7629C315.056 78.9263 314.926 79.0896 314.796 79.2529C313.673 80.6599 312.544 82.0751 311.62 83.6083M312.477 84.1241L311.62 83.6083M312.477 84.1241C312.477 84.1242 312.477 84.1244 312.477 84.1246L311.62 83.6083M312.477 84.1241C310.697 87.0806 310.327 90.3918 310.8 93.8831M311.62 83.6083C309.69 86.8145 309.316 90.373 309.809 94.0174M309.809 94.0174L310.8 93.8831M309.809 94.0174L310.8 93.8832C310.8 93.8832 310.8 93.8831 310.8 93.8831M309.809 94.0174L305.92 86.4877C304.6 92.6147 305.724 98.4788 307.848 104.095C308.377 105.496 308.993 106.882 309.596 108.237C309.848 108.805 310.098 109.367 310.339 109.923C310.621 110.578 310.902 111.238 311.184 111.901C311.981 113.773 312.786 115.664 313.657 117.516L313.658 117.516C314.427 119.151 316.295 119.26 317.427 118.417C317.905 118.062 318.184 117.498 318.332 117.043C318.486 116.569 318.57 115.999 318.486 115.484L318.486 115.483C318.386 114.878 318.155 114.331 317.928 113.863C317.829 113.661 317.725 113.46 317.628 113.273C317.612 113.243 317.597 113.213 317.582 113.184C317.469 112.967 317.366 112.767 317.276 112.57L317.276 112.569C314.447 106.438 311.692 100.463 310.8 93.8831M312.321 75.2336L312.321 75.2333C313.171 74.3402 314.069 73.4631 314.951 72.601C315.397 72.165 315.839 71.7328 316.269 71.3044C317.567 70.0108 318.795 68.7151 319.854 67.3128L320.652 67.9156L319.854 67.3128C323.398 62.6231 325.198 57.7155 322.567 52.1129C321.698 50.2615 320.511 48.7102 318.973 47.4861C315.827 44.9845 312.409 44.4606 308.656 46.0131C308.408 46.1165 308.112 46.1925 307.918 46.2424C307.87 46.2548 307.828 46.2655 307.795 46.2747C307.686 46.3047 307.613 46.3289 307.558 46.352C307.51 46.3722 307.492 46.3852 307.489 46.3869C307.146 46.6687 306.858 47.0549 306.513 47.5437L306.515 47.5552L306.523 47.6034C306.529 47.6356 306.535 47.6738 306.541 47.7137C306.541 47.7146 306.542 47.7155 306.542 47.7164L306.374 47.7413M312.321 75.2336L306.377 47.7361C306.376 47.7379 306.375 47.7396 306.374 47.7413M312.321 75.2336C309.311 78.3972 306.879 82.031 305.92 86.4875L312.321 75.2336ZM306.374 47.7413L306.373 47.7414C306.369 47.7479 306.364 47.7544 306.36 47.761L306.373 47.7417C306.373 47.7416 306.373 47.7415 306.374 47.7413ZM294.276 58.2381L294.276 58.2395C295.605 63.2891 295.646 68.409 293.785 73.3701L293.785 73.3703C291.098 80.5304 286.049 85.5488 278.682 87.9431C274.525 89.2953 270.199 89.584 265.88 88.5468C255.599 86.0806 248.205 78.2032 247.165 67.586C245.833 54.0207 255.135 42.9586 267.801 41.2088L267.801 41.2088C275.824 40.1018 282.738 42.5902 288.438 48.2252L288.439 48.2257C288.605 48.3903 288.723 48.4754 288.799 48.5183C288.836 48.5387 288.86 48.5476 288.872 48.5516C288.885 48.5553 288.891 48.5558 288.894 48.556C288.902 48.5565 289.021 48.5611 289.401 48.3072L289.401 48.3071C290.46 47.6005 291.569 46.9289 292.724 46.3483L294.276 58.2381ZM294.276 58.2381C294.23 58.0628 294.197 57.914 294.184 57.7894C294.182 57.7637 294.18 57.7421 294.18 57.7243C294.249 57.6609 294.355 57.5774 294.5 57.4775C294.813 57.2611 295.236 57.0181 295.69 56.7931C296.143 56.5684 296.598 56.3758 296.97 56.2517C297.157 56.1893 297.304 56.1504 297.409 56.131C297.442 56.125 297.465 56.1219 297.48 56.1202L294.276 58.2381ZM256.799 53.2037C256.855 53.1734 256.91 53.1414 256.964 53.1076C257.506 52.7692 257.914 52.2914 258.251 51.7811L258.252 51.7804C258.533 51.3541 259.051 50.9438 259.663 50.5891C259.741 50.5436 259.82 50.4981 259.898 50.4527C262.072 49.1932 264.158 47.9847 266.446 47.0367L266.447 47.0366C268.608 46.14 270.697 46.24 273.033 46.3518C273.357 46.3674 273.686 46.3831 274.021 46.3965L274.022 46.3965C274.708 46.4233 275.43 46.6347 276.243 46.9467C276.521 47.0533 276.833 47.182 277.158 47.3164C277.697 47.5388 278.274 47.7769 278.799 47.957C278.901 47.9919 279.001 48.0265 279.101 48.0607C279.86 48.3209 280.58 48.5678 281.277 48.8638L281.283 48.8665C281.537 48.9721 281.812 49.1648 282.073 49.4103L282.075 49.4116C283.344 50.5987 284.598 51.8006 285.826 53.0231L285.827 53.0241C285.957 53.1533 286.082 53.3134 286.234 53.5244C286.267 53.5703 286.302 53.621 286.34 53.6747C286.46 53.8438 286.601 54.0439 286.745 54.2248L286.746 54.2257C287.111 54.6826 287.484 55.1385 287.867 55.6059C287.997 55.7646 288.127 55.9247 288.26 56.0866C288.26 56.1878 288.26 56.3196 288.266 56.4525C288.28 56.7534 288.324 57.2148 288.559 57.6476C289.488 59.3622 289.9 61.1357 289.771 63.0621C289.721 63.8071 289.721 64.545 289.727 65.2553C289.728 65.4006 289.73 65.5442 289.731 65.6866C289.737 66.2508 289.743 66.7948 289.73 67.3409C289.698 68.6975 289.548 69.9609 289.034 71.1873C287.617 74.5685 285.721 77.4661 283.013 79.8933C281.229 81.4918 279.078 82.1914 276.65 82.9569L276.649 82.9572C276.231 83.0896 275.821 83.2413 275.438 83.3832C275.411 83.3935 275.383 83.4037 275.356 83.4139C274.94 83.5677 274.554 83.7087 274.168 83.8249C273.404 84.0547 272.69 84.17 271.932 84.0631L271.931 84.063C268.448 83.5752 265.213 83.0592 262.317 81.3665L262.317 81.3663C261.933 81.1422 261.526 81.0401 261.213 80.9751C261.056 80.9425 260.934 80.9204 260.826 80.9011C260.744 80.8862 260.67 80.8729 260.596 80.8576C260.421 80.7243 260.222 80.5838 260.045 80.4591C259.918 80.3697 259.803 80.2884 259.717 80.2237C259.39 79.9801 259.178 79.7793 259.052 79.5809L259.051 79.58C258.738 79.0868 258.346 78.6937 257.976 78.3651C257.79 78.2005 257.6 78.0443 257.424 77.9L257.373 77.8582C257.212 77.7265 257.064 77.6046 256.92 77.4801C256.287 76.9337 255.919 76.4783 255.829 75.8174L255.828 75.812C255.781 75.4824 255.636 75.219 255.535 75.0561C255.467 74.9464 255.367 74.8069 255.308 74.7241C255.29 74.6986 255.275 74.6785 255.267 74.6664L255.265 74.6634C253.665 72.3667 252.974 69.8111 253.034 66.9883L253.034 66.9878C253.038 66.7966 253.043 66.6033 253.047 66.4085C253.074 65.2692 253.102 64.0735 253.021 62.888L253.021 62.8879C252.839 60.2496 253.772 57.9413 255.272 55.6499L256.799 53.2037ZM256.799 53.2037L256.436 53.7881C256.33 53.9587 256.222 54.1335 256.114 54.3107C255.842 54.7525 255.562 55.2088 255.272 55.6498L256.799 53.2037ZM300.417 50.3263C300.198 48.7466 299.449 47.4437 298.329 46.6184C298.396 46.6002 298.46 46.5817 298.521 46.5632C299.582 46.2453 300.87 46.9053 301.26 48.3341L301.26 48.3354C301.463 49.0744 301.184 49.8676 300.417 50.3263ZM294.115 57.7883C294.113 57.7912 294.112 57.7927 294.112 57.7927C294.112 57.7927 294.113 57.7912 294.115 57.7883Z" fill="black" stroke="black" stroke-width="2"/>
<path d="M164.777 131.522C162.935 128.578 161.428 125.516 160.635 122.079L164.777 131.522ZM164.777 131.522C167.76 136.291 172.195 139.025 176.8 141.292L176.8 141.292C181.048 143.38 185.596 144.443 190.272 144.808L190.274 144.809C190.274 144.809 190.299 144.812 190.372 144.836C190.416 144.85 190.455 144.864 190.519 144.887C190.577 144.906 190.651 144.931 190.73 144.955L190.867 144.994H191.01H194.892H194.988L195.083 144.976C196.015 144.795 196.979 144.634 197.958 144.471C200.264 144.087 202.652 143.688 204.898 142.982C207.818 142.065 210.569 140.583 213.147 139.12C213.147 139.12 213.147 139.12 213.147 139.12L164.777 131.522ZM160.035 110.98L159.52 110.874C159.594 110.515 159.667 110.151 159.74 109.784C159.916 108.904 160.095 108.006 160.299 107.123L160.299 107.122C160.411 106.639 160.596 106.025 160.966 105.499L160.967 105.497C161.18 105.197 161.445 104.982 161.644 104.832C161.761 104.745 161.841 104.688 161.909 104.64C161.992 104.583 162.056 104.537 162.145 104.466L162.949 103.814L163.572 104.641C163.639 104.728 163.69 104.787 163.757 104.864C163.81 104.925 163.872 104.996 163.958 105.101C164.112 105.288 164.315 105.554 164.449 105.89C164.449 105.891 164.449 105.891 164.449 105.891L160.035 110.98ZM160.035 110.98L159.497 111.067V111.077V111.086V111.096V111.106V111.116V111.125V111.135V111.145V111.155V111.164V111.174V111.184V111.194V111.203V111.213V111.223V111.232V111.242V111.252V111.262V111.271V111.281V111.291V111.301V111.31V111.32V111.33V111.34V111.349V111.359V111.369V111.378V111.388V111.398V111.408V111.417V111.427V111.437V111.447V111.456V111.466V111.476V111.486V111.495V111.505V111.515V111.524V111.534V111.544V111.554V111.563V111.573V111.583V111.593V111.602V111.612V111.622V111.632V111.641V111.651V111.661V111.67V111.68V111.69V111.7V111.709V111.719V111.729V111.739V111.748V111.758V111.768V111.777V111.787V111.797V111.807V111.816V111.826V111.836V111.846V111.855V111.865V111.875V111.885V111.894V111.904V111.914V111.923V111.933V111.943V111.953V111.962V111.972V111.982V111.992V112.001V112.011V112.021V112.03V112.04V112.05V112.06V112.069V112.079V112.089V112.099V112.108V112.118V112.128V112.137V112.147V112.157V112.167V112.176V112.186V112.196V112.206V112.215V112.225V112.235V112.244V112.254V112.264V112.274V112.283V112.293V112.303V112.313V112.322V112.332V112.342V112.352V112.361V112.371V112.381V112.39V112.4V112.41V112.42V112.429V112.439V112.449V112.459V112.468V112.478V112.488V112.497V112.507V112.517V112.527V112.536V112.546V112.556V112.566V112.575V112.585V112.595V112.604V112.614V112.624V112.634V112.643V112.653V112.663V112.673V112.682V112.692V112.702V112.711V112.721V112.731V112.741V112.75V112.76V112.77V112.78V112.789V112.799V112.809V112.818V112.828V112.838V112.848V112.857V112.867V112.877V112.887V112.896V112.906V112.916V112.925V112.935V112.945V112.955V112.964V112.974V112.984V112.994V113.003V113.013V113.023V113.032V113.042V113.052V113.062V113.071V113.081V113.091V113.101V113.11V113.12V113.13V113.139V113.149V113.159V113.169V113.178V113.188V113.198V113.207V113.217V113.227V113.237V113.246V113.256V113.266V113.276V113.285V113.295V113.305V113.314V113.324V113.334V113.344V113.353V113.363V113.373V113.383V113.392V113.402V113.412V113.421V113.431V113.441V113.451V113.46V113.47V113.48V113.49V113.499V113.509V113.519V113.528V113.538V113.548V113.558V113.567V113.577V113.587V113.597V113.606V113.616V113.626V113.635V113.645V113.655V113.665V113.674V113.684V113.694V113.704V113.713V113.723V113.733V113.742V113.752V113.762V113.772V113.781V113.791V113.801V113.811V113.82V113.83V113.84V113.849V113.859V113.869V113.879V113.888V113.898V113.908V113.918V113.927V113.937V113.947V113.956V113.966V113.976V113.986V113.995V114.005V114.015V114.025V114.034V114.044V114.054V114.063V114.073V114.083V114.093V114.102V114.112V114.122V114.132V114.141V114.151V114.161V114.17V114.18V114.19V114.2V114.209V114.219V114.229V114.239V114.248V114.258V114.268V114.277V114.287V114.297V114.307V114.316V114.326V114.336V114.346V114.355V114.365V114.375V114.384V114.394V114.404V114.414V114.423V114.433V114.443V114.453V114.462V114.472V114.482V114.491V114.501V114.511V114.521V114.53V114.54V114.55V114.56V114.569V114.579V114.589V114.598V114.608V114.618V114.628V114.637V114.647V114.657V114.667V114.676V114.686V114.696V114.705V114.715V114.725V114.735V114.744V114.754V114.764V114.774V114.783V114.793V114.803V114.812V114.822V114.832V114.842V114.851V114.861V114.871V114.881V114.89V114.9V114.91V114.919V114.929V114.939V114.949V114.958V114.968V114.978V114.988V114.997V115.007V115.017V115.026V115.036V115.046V115.056V115.065V115.075V115.085V115.095V115.104V115.114V115.124V115.133V115.143V115.153V115.163V115.172V115.182V115.192V115.202V115.211V115.221V115.231V115.241V115.25V115.26V115.27V115.279V115.289V115.299V115.309V115.318V115.328V115.338V115.348V115.357V115.367V115.377V115.386V115.396V115.406V115.416V115.425V115.435V115.445V115.455V115.464V115.474V115.484V115.494V115.503V115.513V115.523V115.532V115.542V115.552V115.562V115.571V115.581V115.591V115.601V115.61V115.62V115.63V115.639V115.649V115.659V115.669V115.678V115.688V115.698V115.708V115.717V115.727V115.737V115.747V115.756V115.766V115.776V115.785V115.795V115.805V115.815V115.824V115.834V115.844V115.854V115.863V115.873V115.883V115.893V115.902V115.912V115.922V115.931V115.941V115.951V115.961V115.97V115.98V115.99V116V116.009V116.019V116.029V116.039V116.048V116.142L159.515 116.234C159.624 116.814 159.73 117.405 159.836 118.002C160.077 119.351 160.323 120.73 160.635 122.078L160.035 110.98ZM183.405 113.946L183.405 113.946C183.884 113.533 184.365 113.115 184.848 112.696C188.021 109.941 191.289 107.104 194.904 104.854L194.905 104.854C202.232 100.295 210.126 100.427 218 103.204L183.405 113.946ZM183.405 113.946C180.194 116.712 175.089 116.833 171.117 115.111L183.405 113.946ZM233.923 104.341L233.924 104.341C243.953 99.5291 255.165 100.109 264.443 108.162L264.443 108.162C265.358 108.957 266.233 109.789 267.09 110.609C267.167 110.683 267.245 110.757 267.322 110.831C268.103 111.579 268.87 112.314 269.659 113.02C273.689 116.626 278.354 117.141 283.231 115.231C286.129 114.093 288.002 111.467 289.273 108.304C289.437 107.893 289.578 107.465 289.727 107.005L289.764 106.89C289.899 106.472 290.043 106.026 290.209 105.588L290.209 105.586C290.288 105.378 290.413 105.141 290.569 104.934C290.647 104.83 290.753 104.708 290.887 104.6C291.013 104.498 291.229 104.355 291.524 104.312L291.529 104.311C291.92 104.255 292.293 104.371 292.534 104.48C292.764 104.585 293.133 104.801 293.345 105.187L293.346 105.188C293.376 105.243 293.409 105.301 293.443 105.362C293.756 105.924 294.206 106.728 294.303 107.581L294.303 107.581C294.349 107.979 294.397 108.382 294.447 108.79C294.689 110.796 294.944 112.907 294.858 114.991C294.75 117.602 294.386 120.28 293.667 122.822L293.667 122.822C292.782 125.945 291.405 128.845 289.572 131.626C286.373 136.479 281.86 139.222 277.009 141.546L276.577 140.644L277.009 141.546C272.653 143.632 268.037 144.321 263.557 144.986L263.484 144.997H263.41H258.973H258.882L258.793 144.981C258.092 144.852 257.368 144.735 256.632 144.616C254.955 144.344 253.215 144.062 251.556 143.615L251.556 143.615C247.907 142.632 244.538 141.061 241.246 139.283L241.246 139.283C238.177 137.625 235.541 135.497 232.981 133.431C232.748 133.243 232.516 133.056 232.285 132.87C230.802 131.677 229.456 130.242 228.184 128.885C227.872 128.553 227.565 128.225 227.261 127.906C227.224 127.938 227.188 127.97 227.152 128.001C226.606 128.482 226.098 128.929 225.601 129.406C225.085 129.903 224.597 130.41 224.095 130.933C223.842 131.195 223.586 131.462 223.321 131.732C222.545 132.525 221.72 133.323 220.802 134.027L233.923 104.341ZM233.923 104.341C232.551 105 231.277 105.821 230.054 106.662C229.588 106.983 229.137 107.302 228.69 107.618C228.146 108.002 227.608 108.382 227.059 108.755M233.923 104.341L227.059 108.755M227.059 108.755C224.486 106.553 221.568 104.461 218 103.204L227.059 108.755ZM191.01 143.994C190.942 143.975 190.874 143.951 190.807 143.928C190.656 143.875 190.505 143.823 190.35 143.811C185.774 143.454 181.354 142.416 177.241 140.394C172.682 138.151 168.456 135.519 165.625 130.992L191.01 143.994Z" fill="#E89029" stroke="black" stroke-width="2"/>
<path d="M291.502 40.7546C291.46 40.7051 291.419 40.6537 291.381 40.6003C291.254 40.4222 291.082 40.1235 291.068 39.7457L291.068 39.739C291.054 39.2542 291.199 38.7484 291.395 38.3381C291.587 37.9368 291.902 37.4713 292.36 37.1844L292.361 37.1833C294.905 35.5946 297.628 35.7329 300.089 37.2128C300.417 37.4094 300.554 37.4187 300.608 37.4169C300.672 37.4147 300.808 37.3901 301.131 37.1873L301.132 37.1863C307.554 33.1716 315.586 34.2981 320.878 39.6943L320.879 39.6944C324.13 43.0103 325.97 46.9824 326.147 51.575M291.502 40.7546L325.148 51.6135M291.502 40.7546C292.064 40.6589 292.62 40.651 293.155 40.7285C292.676 40.5505 292.08 40.0577 292.067 39.7095C292.051 39.1464 292.422 38.3255 292.891 38.0315L291.502 40.7546ZM291.502 40.7546C290.911 40.8551 290.313 41.0521 289.724 41.3482L291.502 40.7546ZM326.147 51.575L325.148 51.6135M326.147 51.575C326.147 51.5749 326.147 51.5748 326.147 51.5747L325.148 51.6135M326.147 51.575C326.264 54.5988 325.906 57.7989 324.14 60.6517L324.14 60.652C323.847 61.1247 323.555 61.6064 323.26 62.0925C322.227 63.7935 321.161 65.5485 319.935 67.1625L319.934 67.1627C319.371 67.9037 318.685 68.5172 318.043 69.0634C317.906 69.1792 317.773 69.2914 317.642 69.4013C317.133 69.8295 316.665 70.2229 316.237 70.6599L316.237 70.66C315.086 71.8352 314 73.0871 312.969 74.3848L312.969 74.3852C312.839 74.549 312.709 74.7118 312.58 74.874C311.452 76.2885 310.365 77.6508 309.477 79.1241M325.148 51.6135C325.262 54.5423 324.907 57.5128 323.29 60.1255C322.987 60.6151 322.687 61.108 322.388 61.601C321.36 63.2945 320.331 64.9891 319.138 66.5573C318.547 67.3345 317.783 67.9765 317.016 68.6207C316.503 69.0525 315.987 69.4852 315.522 69.9604C314.344 71.1641 313.235 72.4427 312.186 73.7629C312.056 73.9263 311.926 74.0896 311.796 74.2529C310.673 75.6599 309.544 77.0751 308.62 78.6083M309.477 79.1241L308.62 78.6083M309.477 79.1241C309.477 79.1242 309.477 79.1244 309.477 79.1246L308.62 78.6083M309.477 79.1241C307.697 82.0806 307.327 85.3918 307.8 88.8831M308.62 78.6083C306.69 81.8145 306.316 85.373 306.809 89.0174M306.809 89.0174L307.8 88.8831M306.809 89.0174L307.8 88.8832C307.8 88.8832 307.8 88.8831 307.8 88.8831M306.809 89.0174L302.92 81.4877C301.6 87.6147 302.724 93.4788 304.848 99.0952C305.377 100.496 305.993 101.882 306.596 103.237C306.848 103.805 307.098 104.367 307.339 104.923C307.621 105.578 307.902 106.238 308.184 106.901C308.981 108.773 309.786 110.664 310.657 112.516L310.658 112.516C311.427 114.151 313.295 114.26 314.427 113.417C314.905 113.062 315.184 112.498 315.332 112.043C315.486 111.569 315.57 110.999 315.486 110.484L315.486 110.483C315.386 109.878 315.155 109.331 314.928 108.863C314.829 108.661 314.725 108.46 314.628 108.273C314.612 108.243 314.597 108.213 314.582 108.184C314.469 107.967 314.366 107.767 314.276 107.57L314.276 107.569C311.447 101.438 308.692 95.4635 307.8 88.8831M309.321 70.2336L309.321 70.2333C310.171 69.3402 311.069 68.4631 311.951 67.601C312.397 67.165 312.839 66.7328 313.269 66.3044C314.567 65.0108 315.795 63.7151 316.854 62.3128L317.652 62.9156L316.854 62.3128C320.398 57.6231 322.198 52.7155 319.567 47.1129C318.698 45.2615 317.511 43.7102 315.973 42.4861C312.827 39.9845 309.409 39.4606 305.656 41.0131C305.408 41.1165 305.112 41.1925 304.918 41.2424C304.87 41.2548 304.828 41.2655 304.795 41.2747C304.686 41.3047 304.613 41.3289 304.558 41.352C304.51 41.3722 304.492 41.3852 304.489 41.3869C304.146 41.6687 303.858 42.0549 303.513 42.5437L303.515 42.5552L303.523 42.6034C303.529 42.6356 303.535 42.6738 303.541 42.7137C303.541 42.7146 303.542 42.7155 303.542 42.7164L303.374 42.7413M309.321 70.2336L303.377 42.7361C303.376 42.7379 303.375 42.7396 303.374 42.7413M309.321 70.2336C306.311 73.3972 303.879 77.031 302.92 81.4875L309.321 70.2336ZM303.374 42.7413L303.373 42.7414C303.369 42.7479 303.364 42.7544 303.36 42.761L303.373 42.7417C303.373 42.7416 303.373 42.7415 303.374 42.7413ZM291.276 53.2381L291.276 53.2395C292.605 58.2891 292.646 63.409 290.785 68.3701L290.785 68.3703C288.098 75.5304 283.049 80.5488 275.682 82.9431C271.525 84.2953 267.199 84.584 262.88 83.5468C252.599 81.0806 245.205 73.2032 244.165 62.586C242.833 49.0207 252.135 37.9586 264.801 36.2088L264.801 36.2088C272.824 35.1018 279.738 37.5902 285.438 43.2252L285.439 43.2257C285.605 43.3903 285.723 43.4754 285.799 43.5183C285.836 43.5387 285.86 43.5476 285.872 43.5516C285.885 43.5553 285.891 43.5558 285.894 43.556C285.902 43.5565 286.021 43.5611 286.401 43.3072L286.401 43.3071C287.46 42.6005 288.569 41.9289 289.724 41.3483L291.276 53.2381ZM291.276 53.2381C291.23 53.0628 291.197 52.914 291.184 52.7894C291.182 52.7637 291.18 52.7421 291.18 52.7243C291.249 52.6609 291.355 52.5774 291.5 52.4775C291.813 52.2611 292.236 52.0181 292.69 51.7931C293.143 51.5684 293.598 51.3758 293.97 51.2517C294.157 51.1893 294.304 51.1504 294.409 51.131C294.442 51.125 294.465 51.1219 294.48 51.1202L291.276 53.2381ZM253.799 48.2037C253.855 48.1734 253.91 48.1414 253.964 48.1076C254.506 47.7692 254.914 47.2914 255.251 46.7811L255.252 46.7804C255.533 46.3541 256.051 45.9438 256.663 45.5891C256.741 45.5436 256.82 45.4981 256.898 45.4527C259.072 44.1932 261.158 42.9847 263.446 42.0367L263.447 42.0366C265.608 41.14 267.697 41.24 270.033 41.3518C270.357 41.3674 270.686 41.3831 271.021 41.3965L271.022 41.3965C271.708 41.4233 272.43 41.6347 273.243 41.9467C273.521 42.0533 273.833 42.182 274.158 42.3164C274.697 42.5388 275.274 42.7769 275.799 42.957C275.901 42.9919 276.001 43.0265 276.101 43.0607C276.86 43.3209 277.58 43.5678 278.277 43.8638L278.283 43.8665C278.537 43.9721 278.812 44.1648 279.073 44.4103L279.075 44.4116C280.344 45.5987 281.598 46.8006 282.826 48.0231L282.827 48.0241C282.957 48.1533 283.082 48.3134 283.234 48.5244C283.267 48.5703 283.302 48.621 283.34 48.6747C283.46 48.8438 283.601 49.0439 283.745 49.2248L283.746 49.2257C284.111 49.6826 284.484 50.1385 284.867 50.6059C284.997 50.7646 285.127 50.9247 285.26 51.0866C285.26 51.1878 285.26 51.3196 285.266 51.4525C285.28 51.7534 285.324 52.2148 285.559 52.6476C286.488 54.3622 286.9 56.1357 286.771 58.0621C286.721 58.8071 286.721 59.545 286.727 60.2553C286.728 60.4006 286.73 60.5442 286.731 60.6866C286.737 61.2508 286.743 61.7948 286.73 62.3409C286.698 63.6975 286.548 64.9609 286.034 66.1873C284.617 69.5685 282.721 72.4661 280.013 74.8933C278.229 76.4918 276.078 77.1914 273.65 77.9569L273.649 77.9572C273.231 78.0896 272.821 78.2413 272.438 78.3832C272.411 78.3935 272.383 78.4037 272.356 78.4139C271.94 78.5677 271.554 78.7087 271.168 78.8249C270.404 79.0547 269.69 79.17 268.932 79.0631L268.931 79.063C265.448 78.5752 262.213 78.0592 259.317 76.3665L259.317 76.3663C258.933 76.1422 258.526 76.0401 258.213 75.9751C258.056 75.9425 257.934 75.9204 257.826 75.9011C257.744 75.8862 257.67 75.8729 257.596 75.8576C257.421 75.7243 257.222 75.5838 257.045 75.4591C256.918 75.3697 256.803 75.2884 256.717 75.2237C256.39 74.9801 256.178 74.7793 256.052 74.5809L256.051 74.58C255.738 74.0868 255.346 73.6937 254.976 73.3651C254.79 73.2005 254.6 73.0443 254.424 72.9L254.373 72.8582C254.212 72.7265 254.064 72.6046 253.92 72.4801C253.287 71.9337 252.919 71.4783 252.829 70.8174L252.828 70.812C252.781 70.4824 252.636 70.219 252.535 70.0561C252.467 69.9464 252.367 69.8069 252.308 69.7241C252.29 69.6986 252.275 69.6785 252.267 69.6664L252.265 69.6634C250.665 67.3667 249.974 64.8111 250.034 61.9883L250.034 61.9878C250.038 61.7966 250.043 61.6033 250.047 61.4085C250.074 60.2692 250.102 59.0735 250.021 57.888L250.021 57.8879C249.839 55.2496 250.772 52.9413 252.272 50.6499L253.799 48.2037ZM253.799 48.2037L253.436 48.7881C253.33 48.9587 253.222 49.1335 253.114 49.3107C252.842 49.7525 252.562 50.2088 252.272 50.6498L253.799 48.2037ZM297.417 45.3263C297.198 43.7466 296.449 42.4437 295.329 41.6184C295.396 41.6002 295.46 41.5817 295.521 41.5632C296.582 41.2453 297.87 41.9053 298.26 43.3341L298.26 43.3354C298.463 44.0744 298.184 44.8676 297.417 45.3263ZM291.115 52.7883C291.113 52.7912 291.112 52.7927 291.112 52.7927C291.112 52.7927 291.113 52.7912 291.115 52.7883Z" fill="#E89029" stroke="black" stroke-width="2"/>
</svg>
